STARTFONT 2.1
COMMENT
COMMENT Converted from OpenType font "BrandonGrotesque-Bold.ttf" by "otf2bdf 3.0".
COMMENT
FONT -FreeType-Brandon Grotesque Bold-Medium-R-Normal--17-160-75-75-P-77-ISO10646-1
SIZE 16 75 75
FONTBOUNDINGBOX 18 25 -2 -7
STARTPROPERTIES 19
FOUNDRY "FreeType"
FAMILY_NAME "Brandon Grotesque Bold"
WEIGHT_NAME "Medium"
SLANT "R"
SETWIDTH_NAME "Normal"
ADD_STYLE_NAME ""
PIXEL_SIZE 17
POINT_SIZE 160
RESOLUTION_X 75
RESOLUTION_Y 75
SPACING "P"
AVERAGE_WIDTH 77
CHARSET_REGISTRY "ISO10646"
CHARSET_ENCODING "1"
FONT_ASCENT 17
FONT_DESCENT 6
COPYRIGHT "Copyright (c) 2009 by Hannes von Doehren. All rights reserved."
_OTF_FONTFILE "BrandonGrotesque-Bold.ttf"
_OTF_PSNAME "BrandonGrotesque-Bold"
ENDPROPERTIES
CHARS 413
STARTCHAR 0020
ENCODING 32
SWIDTH 240 0
DWIDTH 4 0
BBX 0 0 0 0
BITMAP
ENDCHAR
STARTCHAR 0021
ENCODING 33
SWIDTH 300 0
DWIDTH 5 0
BBX 2 12 1 0
BITMAP
C0
C0
C0
C0
C0
C0
40
00
00
C0
C0
C0
ENDCHAR
STARTCHAR 0022
ENCODING 34
SWIDTH 360 0
DWIDTH 6 0
BBX 5 3 1 9
BITMAP
D8
D8
90
ENDCHAR
STARTCHAR 0023
ENCODING 35
SWIDTH 540 0
DWIDTH 9 0
BBX 7 12 1 0
BITMAP
22
24
24
24
FE
44
44
44
FE
48
48
48
ENDCHAR
STARTCHAR 0024
ENCODING 36
SWIDTH 600 0
DWIDTH 10 0
BBX 8 15 1 -2
BITMAP
10
7C
FE
D4
D0
F0
78
3E
17
13
D3
FE
7C
10
10
ENDCHAR
STARTCHAR 0025
ENCODING 37
SWIDTH 720 0
DWIDTH 12 0
BBX 10 12 1 0
BITMAP
7180
F900
DB00
FA00
7600
0400
0C00
0800
1B80
16C0
37C0
2380
ENDCHAR
STARTCHAR 0026
ENCODING 38
SWIDTH 660 0
DWIDTH 11 0
BBX 10 12 1 0
BITMAP
3C00
7E00
6600
6600
7C00
3800
7D80
CF80
C700
C780
FFC0
7C80
ENDCHAR
STARTCHAR 0027
ENCODING 39
SWIDTH 180 0
DWIDTH 3 0
BBX 2 3 1 9
BITMAP
C0
C0
80
ENDCHAR
STARTCHAR 0028
ENCODING 40
SWIDTH 360 0
DWIDTH 6 0
BBX 5 13 1 -1
BITMAP
38
70
60
C0
C0
C0
C0
C0
C0
C0
60
70
38
ENDCHAR
STARTCHAR 0029
ENCODING 41
SWIDTH 360 0
DWIDTH 6 0
BBX 5 13 0 -1
BITMAP
E0
70
30
10
18
18
18
18
18
18
30
70
E0
ENDCHAR
STARTCHAR 002A
ENCODING 42
SWIDTH 300 0
DWIDTH 5 0
BBX 5 6 0 6
BITMAP
20
A8
70
70
A8
20
ENDCHAR
STARTCHAR 002B
ENCODING 43
SWIDTH 540 0
DWIDTH 9 0
BBX 7 7 1 2
BITMAP
18
18
FE
FE
18
18
18
ENDCHAR
STARTCHAR 002C
ENCODING 44
SWIDTH 300 0
DWIDTH 5 0
BBX 3 6 1 -3
BITMAP
40
E0
E0
20
60
C0
ENDCHAR
STARTCHAR 002D
ENCODING 45
SWIDTH 360 0
DWIDTH 6 0
BBX 4 2 1 3
BITMAP
F0
F0
ENDCHAR
STARTCHAR 002E
ENCODING 46
SWIDTH 240 0
DWIDTH 4 0
BBX 3 3 1 0
BITMAP
40
E0
C0
ENDCHAR
STARTCHAR 002F
ENCODING 47
SWIDTH 360 0
DWIDTH 6 0
BBX 6 12 0 0
BITMAP
0C
18
18
18
30
30
30
30
60
60
60
C0
ENDCHAR
STARTCHAR 0030
ENCODING 48
SWIDTH 600 0
DWIDTH 10 0
BBX 8 12 1 0
BITMAP
3C
7E
66
C3
C3
C3
C3
C3
C3
66
7E
3C
ENDCHAR
STARTCHAR 0031
ENCODING 49
SWIDTH 300 0
DWIDTH 5 0
BBX 4 12 0 0
BITMAP
30
70
F0
B0
30
30
30
30
30
30
30
30
ENDCHAR
STARTCHAR 0032
ENCODING 50
SWIDTH 540 0
DWIDTH 9 0
BBX 7 12 1 0
BITMAP
3C
FC
46
06
06
0C
0C
18
30
70
7E
FE
ENDCHAR
STARTCHAR 0033
ENCODING 51
SWIDTH 540 0
DWIDTH 9 0
BBX 7 12 1 0
BITMAP
38
FC
46
06
0C
7C
3C
06
06
C6
FC
78
ENDCHAR
STARTCHAR 0034
ENCODING 52
SWIDTH 660 0
DWIDTH 11 0
BBX 9 12 1 0
BITMAP
0600
0600
0E00
1E00
3E00
3600
6600
C600
FF80
FF80
0600
0600
ENDCHAR
STARTCHAR 0035
ENCODING 53
SWIDTH 540 0
DWIDTH 9 0
BBX 7 12 1 0
BITMAP
FC
FC
C0
C0
F8
FC
06
06
06
86
FC
78
ENDCHAR
STARTCHAR 0036
ENCODING 54
SWIDTH 540 0
DWIDTH 9 0
BBX 8 12 1 0
BITMAP
0C
3C
70
60
DC
FE
E7
C3
C3
C7
7E
3C
ENDCHAR
STARTCHAR 0037
ENCODING 55
SWIDTH 540 0
DWIDTH 9 0
BBX 8 12 1 0
BITMAP
FF
FF
06
0E
0C
1C
18
38
30
70
60
E0
ENDCHAR
STARTCHAR 0038
ENCODING 56
SWIDTH 600 0
DWIDTH 10 0
BBX 8 12 1 0
BITMAP
3C
7E
C3
C3
E7
7E
7E
E3
C3
C3
7F
3E
ENDCHAR
STARTCHAR 0039
ENCODING 57
SWIDTH 600 0
DWIDTH 10 0
BBX 8 12 1 0
BITMAP
3C
7E
C6
C3
C3
E7
7F
3E
06
0C
38
30
ENDCHAR
STARTCHAR 003A
ENCODING 58
SWIDTH 240 0
DWIDTH 4 0
BBX 2 7 1 0
BITMAP
C0
C0
00
00
00
C0
C0
ENDCHAR
STARTCHAR 003B
ENCODING 59
SWIDTH 300 0
DWIDTH 5 0
BBX 3 10 1 -3
BITMAP
E0
E0
00
00
00
C0
E0
20
40
40
ENDCHAR
STARTCHAR 003C
ENCODING 60
SWIDTH 420 0
DWIDTH 7 0
BBX 6 8 1 0
BITMAP
04
1C
38
E0
E0
38
1C
04
ENDCHAR
STARTCHAR 003D
ENCODING 61
SWIDTH 480 0
DWIDTH 8 0
BBX 6 5 1 2
BITMAP
FC
FC
00
FC
FC
ENDCHAR
STARTCHAR 003E
ENCODING 62
SWIDTH 420 0
DWIDTH 7 0
BBX 6 8 1 0
BITMAP
80
E0
70
1C
1C
70
E0
80
ENDCHAR
STARTCHAR 003F
ENCODING 63
SWIDTH 420 0
DWIDTH 7 0
BBX 6 12 1 0
BITMAP
78
FC
8C
0C
38
70
60
00
00
20
70
70
ENDCHAR
STARTCHAR 0040
ENCODING 64
SWIDTH 1020 0
DWIDTH 17 0
BBX 15 16 1 -4
BITMAP
07E0
1FF8
381C
700C
6006
C3A6
C7E6
CC66
CC66
CC66
C7FC
63B8
6000
3000
1C00
0C00
ENDCHAR
STARTCHAR 0041
ENCODING 65
SWIDTH 660 0
DWIDTH 11 0
BBX 11 12 0 0
BITMAP
0400
0600
0E00
0E00
1B00
1B00
3980
3180
7FC0
7FC0
E0E0
C060
ENDCHAR
STARTCHAR 0042
ENCODING 66
SWIDTH 660 0
DWIDTH 11 0
BBX 8 12 2 0
BITMAP
FC
FE
C3
C3
C3
FE
FE
C3
C3
C3
FE
FC
ENDCHAR
STARTCHAR 0043
ENCODING 67
SWIDTH 660 0
DWIDTH 11 0
BBX 10 12 1 0
BITMAP
1F00
3FC0
7080
E000
C000
C000
C000
C000
E000
7080
3FC0
1F00
ENDCHAR
STARTCHAR 0044
ENCODING 68
SWIDTH 720 0
DWIDTH 12 0
BBX 10 12 2 0
BITMAP
FC00
FF00
C380
C180
C0C0
C0C0
C0C0
C0C0
C180
C380
FF00
FC00
ENDCHAR
STARTCHAR 0045
ENCODING 69
SWIDTH 600 0
DWIDTH 10 0
BBX 8 12 2 0
BITMAP
FF
FF
C0
C0
C0
FE
FE
C0
C0
C0
FF
FF
ENDCHAR
STARTCHAR 0046
ENCODING 70
SWIDTH 600 0
DWIDTH 10 0
BBX 8 12 2 0
BITMAP
FF
FF
C0
C0
C0
FE
FE
C0
C0
C0
C0
C0
ENDCHAR
STARTCHAR 0047
ENCODING 71
SWIDTH 720 0
DWIDTH 12 0
BBX 10 12 1 0
BITMAP
1F00
3FC0
7080
E000
C000
C000
C3C0
C3C0
E0C0
70C0
3FC0
1F00
ENDCHAR
STARTCHAR 0048
ENCODING 72
SWIDTH 780 0
DWIDTH 13 0
BBX 10 12 2 0
BITMAP
C0C0
C0C0
C0C0
C0C0
C0C0
FFC0
FFC0
C0C0
C0C0
C0C0
C0C0
C0C0
ENDCHAR
STARTCHAR 0049
ENCODING 73
SWIDTH 300 0
DWIDTH 5 0
BBX 2 12 2 0
BITMAP
C0
C0
C0
C0
C0
C0
C0
C0
C0
C0
C0
C0
ENDCHAR
STARTCHAR 004A
ENCODING 74
SWIDTH 420 0
DWIDTH 7 0
BBX 6 12 0 0
BITMAP
0C
0C
0C
0C
0C
0C
0C
0C
0C
0C
F8
70
ENDCHAR
STARTCHAR 004B
ENCODING 75
SWIDTH 660 0
DWIDTH 11 0
BBX 9 12 2 0
BITMAP
C300
C700
CE00
DC00
F800
F000
F800
D800
CC00
CE00
C700
C380
ENDCHAR
STARTCHAR 004C
ENCODING 76
SWIDTH 540 0
DWIDTH 9 0
BBX 7 12 2 0
BITMAP
C0
C0
C0
C0
C0
C0
C0
C0
C0
C0
FE
FE
ENDCHAR
STARTCHAR 004D
ENCODING 77
SWIDTH 900 0
DWIDTH 15 0
BBX 13 12 1 0
BITMAP
2020
6060
7060
70E0
78F0
79F0
79B0
EDB0
CF30
C730
C638
C218
ENDCHAR
STARTCHAR 004E
ENCODING 78
SWIDTH 780 0
DWIDTH 13 0
BBX 10 12 2 0
BITMAP
80C0
C0C0
E0C0
F0C0
F8C0
DCC0
CEC0
C7C0
C3C0
C1C0
C0C0
C040
ENDCHAR
STARTCHAR 004F
ENCODING 79
SWIDTH 780 0
DWIDTH 13 0
BBX 12 12 1 0
BITMAP
1F00
3FC0
70E0
E060
C030
C030
C030
C030
E060
70E0
3FC0
1F00
ENDCHAR
STARTCHAR 0050
ENCODING 80
SWIDTH 600 0
DWIDTH 10 0
BBX 8 12 2 0
BITMAP
FC
FE
C3
C3
C7
FE
FC
C0
C0
C0
C0
C0
ENDCHAR
STARTCHAR 0051
ENCODING 81
SWIDTH 840 0
DWIDTH 14 0
BBX 12 15 1 -3
BITMAP
1F00
3FC0
70E0
E060
C030
C030
C030
C030
E060
70E0
3FC0
1F80
01C0
00C0
00E0
ENDCHAR
STARTCHAR 0052
ENCODING 82
SWIDTH 720 0
DWIDTH 12 0
BBX 9 12 2 0
BITMAP
FE00
FF00
C180
C180
C380
FF00
FE00
CE00
C700
C700
C300
C380
ENDCHAR
STARTCHAR 0053
ENCODING 83
SWIDTH 480 0
DWIDTH 8 0
BBX 7 12 1 0
BITMAP
7C
FE
C4
C0
E0
78
3C
0E
06
C6
FC
78
ENDCHAR
STARTCHAR 0054
ENCODING 84
SWIDTH 600 0
DWIDTH 10 0
BBX 8 12 1 0
BITMAP
FF
FF
18
18
18
18
18
18
18
18
18
18
ENDCHAR
STARTCHAR 0055
ENCODING 85
SWIDTH 660 0
DWIDTH 11 0
BBX 9 12 1 0
BITMAP
C180
C180
C180
C180
C180
C180
C180
C180
C180
E380
7F00
3E00
ENDCHAR
STARTCHAR 0056
ENCODING 86
SWIDTH 660 0
DWIDTH 11 0
BBX 11 12 0 0
BITMAP
C060
E0E0
60C0
71C0
3180
3B80
1B00
1F00
0E00
0E00
0600
0400
ENDCHAR
STARTCHAR 0057
ENCODING 87
SWIDTH 900 0
DWIDTH 15 0
BBX 13 12 1 0
BITMAP
C218
C218
C718
C718
6DB0
6DB0
6DB0
78F0
38E0
3060
3060
1040
ENDCHAR
STARTCHAR 0058
ENCODING 88
SWIDTH 660 0
DWIDTH 11 0
BBX 10 12 0 0
BITMAP
61C0
7180
3B80
1F00
1E00
0E00
0E00
1F00
3B00
3380
7180
E1C0
ENDCHAR
STARTCHAR 0059
ENCODING 89
SWIDTH 600 0
DWIDTH 10 0
BBX 10 12 0 0
BITMAP
E1C0
6180
3300
3F00
1E00
0C00
0C00
0C00
0C00
0C00
0C00
0C00
ENDCHAR
STARTCHAR 005A
ENCODING 90
SWIDTH 600 0
DWIDTH 10 0
BBX 8 12 1 0
BITMAP
FF
FE
06
0C
0C
18
18
30
70
60
FF
FF
ENDCHAR
STARTCHAR 005B
ENCODING 91
SWIDTH 360 0
DWIDTH 6 0
BBX 4 17 1 -5
BITMAP
F0
F0
C0
C0
C0
C0
C0
C0
C0
C0
C0
C0
C0
C0
C0
F0
F0
ENDCHAR
STARTCHAR 005C
ENCODING 92
SWIDTH 360 0
DWIDTH 6 0
BBX 5 12 0 0
BITMAP
C0
60
60
60
60
30
30
30
18
18
18
18
ENDCHAR
STARTCHAR 005D
ENCODING 93
SWIDTH 360 0
DWIDTH 6 0
BBX 4 17 1 -5
BITMAP
F0
F0
30
30
30
30
30
30
30
30
30
30
30
30
30
F0
F0
ENDCHAR
STARTCHAR 005E
ENCODING 94
SWIDTH 540 0
DWIDTH 9 0
BBX 7 5 1 8
BITMAP
30
38
6C
CC
C6
ENDCHAR
STARTCHAR 005F
ENCODING 95
SWIDTH 480 0
DWIDTH 8 0
BBX 6 2 1 -1
BITMAP
FC
FC
ENDCHAR
STARTCHAR 0060
ENCODING 96
SWIDTH 300 0
DWIDTH 5 0
BBX 4 3 1 9
BITMAP
80
E0
30
ENDCHAR
STARTCHAR 0061
ENCODING 97
SWIDTH 480 0
DWIDTH 8 0
BBX 6 7 1 0
BITMAP
78
7C
0C
7C
CC
FC
74
ENDCHAR
STARTCHAR 0062
ENCODING 98
SWIDTH 480 0
DWIDTH 8 0
BBX 7 12 1 0
BITMAP
C0
C0
C0
C0
C0
F8
FC
C6
C6
C6
FC
B8
ENDCHAR
STARTCHAR 0063
ENCODING 99
SWIDTH 420 0
DWIDTH 7 0
BBX 6 7 1 0
BITMAP
38
7C
C0
C0
C0
7C
38
ENDCHAR
STARTCHAR 0064
ENCODING 100
SWIDTH 540 0
DWIDTH 9 0
BBX 7 12 1 0
BITMAP
06
06
06
06
06
3E
7E
C6
C6
C6
7E
3A
ENDCHAR
STARTCHAR 0065
ENCODING 101
SWIDTH 480 0
DWIDTH 8 0
BBX 7 7 1 0
BITMAP
38
7C
CC
FE
C0
7C
38
ENDCHAR
STARTCHAR 0066
ENCODING 102
SWIDTH 420 0
DWIDTH 7 0
BBX 6 12 1 0
BITMAP
3C
7C
60
60
60
F8
F8
60
60
60
60
60
ENDCHAR
STARTCHAR 0067
ENCODING 103
SWIDTH 540 0
DWIDTH 9 0
BBX 7 12 1 -5
BITMAP
7E
7C
CC
CC
7C
F8
80
FC
7E
C6
FE
7C
ENDCHAR
STARTCHAR 0068
ENCODING 104
SWIDTH 540 0
DWIDTH 9 0
BBX 7 12 1 0
BITMAP
C0
C0
C0
C0
C0
F8
FC
C6
C6
C6
C6
C6
ENDCHAR
STARTCHAR 0069
ENCODING 105
SWIDTH 240 0
DWIDTH 4 0
BBX 2 12 1 0
BITMAP
C0
C0
00
00
00
C0
C0
C0
C0
C0
C0
C0
ENDCHAR
STARTCHAR 006A
ENCODING 106
SWIDTH 240 0
DWIDTH 4 0
BBX 5 17 -2 -5
BITMAP
18
18
00
00
00
18
18
18
18
18
18
18
18
18
18
F0
F0
ENDCHAR
STARTCHAR 006B
ENCODING 107
SWIDTH 480 0
DWIDTH 8 0
BBX 7 12 1 0
BITMAP
C0
C0
C0
C0
C0
CC
D8
F0
F0
F8
DC
CE
ENDCHAR
STARTCHAR 006C
ENCODING 108
SWIDTH 240 0
DWIDTH 4 0
BBX 2 12 1 0
BITMAP
C0
C0
C0
C0
C0
C0
C0
C0
C0
C0
C0
C0
ENDCHAR
STARTCHAR 006D
ENCODING 109
SWIDTH 840 0
DWIDTH 14 0
BBX 12 7 1 0
BITMAP
BDE0
FFE0
C630
C630
C630
C630
C630
ENDCHAR
STARTCHAR 006E
ENCODING 110
SWIDTH 540 0
DWIDTH 9 0
BBX 7 7 1 0
BITMAP
BC
FC
C6
C6
C6
C6
C6
ENDCHAR
STARTCHAR 006F
ENCODING 111
SWIDTH 480 0
DWIDTH 8 0
BBX 7 7 1 0
BITMAP
38
7C
C6
C6
C6
7C
38
ENDCHAR
STARTCHAR 0070
ENCODING 112
SWIDTH 480 0
DWIDTH 8 0
BBX 7 12 1 -5
BITMAP
B8
FC
C6
C6
C6
FC
F8
C0
C0
C0
C0
C0
ENDCHAR
STARTCHAR 0071
ENCODING 113
SWIDTH 540 0
DWIDTH 9 0
BBX 7 12 1 -5
BITMAP
3A
7E
C6
C6
C6
7E
3E
06
06
06
06
06
ENDCHAR
STARTCHAR 0072
ENCODING 114
SWIDTH 360 0
DWIDTH 6 0
BBX 5 7 1 0
BITMAP
B8
F0
C0
C0
C0
C0
C0
ENDCHAR
STARTCHAR 0073
ENCODING 115
SWIDTH 420 0
DWIDTH 7 0
BBX 5 7 1 0
BITMAP
70
F0
C0
70
18
F8
F0
ENDCHAR
STARTCHAR 0074
ENCODING 116
SWIDTH 420 0
DWIDTH 7 0
BBX 5 9 1 0
BITMAP
60
60
F8
F8
60
60
60
78
78
ENDCHAR
STARTCHAR 0075
ENCODING 117
SWIDTH 540 0
DWIDTH 9 0
BBX 7 7 1 0
BITMAP
C6
C6
C6
C6
C6
FE
7A
ENDCHAR
STARTCHAR 0076
ENCODING 118
SWIDTH 420 0
DWIDTH 7 0
BBX 7 7 0 0
BITMAP
C6
6C
6C
38
38
10
10
ENDCHAR
STARTCHAR 0077
ENCODING 119
SWIDTH 600 0
DWIDTH 10 0
BBX 10 7 0 0
BITMAP
C4C0
6CC0
6F80
7F80
3380
3100
2100
ENDCHAR
STARTCHAR 0078
ENCODING 120
SWIDTH 480 0
DWIDTH 8 0
BBX 7 7 0 0
BITMAP
E6
6C
3C
18
3C
6C
E6
ENDCHAR
STARTCHAR 0079
ENCODING 121
SWIDTH 480 0
DWIDTH 8 0
BBX 8 12 0 -5
BITMAP
C7
66
66
3C
3C
38
18
30
30
70
60
E0
ENDCHAR
STARTCHAR 007A
ENCODING 122
SWIDTH 420 0
DWIDTH 7 0
BBX 5 7 1 0
BITMAP
F8
F8
30
30
60
78
F8
ENDCHAR
STARTCHAR 007B
ENCODING 123
SWIDTH 420 0
DWIDTH 7 0
BBX 6 17 1 -5
BITMAP
1C
38
70
60
60
60
60
E0
C0
E0
60
60
60
60
70
38
1C
ENDCHAR
STARTCHAR 007C
ENCODING 124
SWIDTH 180 0
DWIDTH 3 0
BBX 1 18 1 -5
BITMAP
80
80
80
80
80
80
80
80
80
80
80
80
80
80
80
80
80
80
ENDCHAR
STARTCHAR 007D
ENCODING 125
SWIDTH 420 0
DWIDTH 7 0
BBX 6 17 0 -5
BITMAP
E0
70
30
18
18
18
18
18
0C
18
18
18
18
18
38
70
E0
ENDCHAR
STARTCHAR 007E
ENCODING 126
SWIDTH 540 0
DWIDTH 9 0
BBX 7 3 1 3
BITMAP
62
FE
9C
ENDCHAR
STARTCHAR 00A0
ENCODING 160
SWIDTH 240 0
DWIDTH 4 0
BBX 0 0 0 0
BITMAP
ENDCHAR
STARTCHAR 00A1
ENCODING 161
SWIDTH 300 0
DWIDTH 5 0
BBX 3 12 1 -5
BITMAP
C0
E0
40
00
00
40
40
C0
E0
E0
E0
E0
ENDCHAR
STARTCHAR 00A2
ENCODING 162
SWIDTH 420 0
DWIDTH 7 0
BBX 6 10 1 -2
BITMAP
08
38
7C
D0
D0
D0
7C
38
20
20
ENDCHAR
STARTCHAR 00A3
ENCODING 163
SWIDTH 480 0
DWIDTH 8 0
BBX 6 12 1 0
BITMAP
78
FC
C0
C0
C0
C0
F8
60
60
60
FC
FC
ENDCHAR
STARTCHAR 00A4
ENCODING 164
SWIDTH 420 0
DWIDTH 7 0
BBX 5 6 1 3
BITMAP
C8
F8
58
58
F8
C8
ENDCHAR
STARTCHAR 00A5
ENCODING 165
SWIDTH 600 0
DWIDTH 10 0
BBX 10 12 0 0
BITMAP
E1C0
6180
3300
3F00
1E00
1C00
0C00
3F00
0C00
3F00
0C00
0C00
ENDCHAR
STARTCHAR 00A6
ENCODING 166
SWIDTH 300 0
DWIDTH 5 0
BBX 1 18 2 -5
BITMAP
80
80
80
80
80
80
00
00
00
00
00
00
80
80
80
80
80
80
ENDCHAR
STARTCHAR 00A7
ENCODING 167
SWIDTH 540 0
DWIDTH 9 0
BBX 7 16 1 -4
BITMAP
7C
FE
C4
C0
E0
78
DC
C6
C6
76
3C
0E
06
46
FE
7C
ENDCHAR
STARTCHAR 00A8
ENCODING 168
SWIDTH 420 0
DWIDTH 7 0
BBX 5 2 1 9
BITMAP
D8
D8
ENDCHAR
STARTCHAR 00A9
ENCODING 169
SWIDTH 840 0
DWIDTH 14 0
BBX 12 13 1 0
BITMAP
0F00
3FC0
70E0
6760
CF30
D830
D830
D830
CF30
6760
70E0
3FC0
0F00
ENDCHAR
STARTCHAR 00AA
ENCODING 170
SWIDTH 360 0
DWIDTH 6 0
BBX 4 5 1 7
BITMAP
F0
10
F0
90
F0
ENDCHAR
STARTCHAR 00AB
ENCODING 171
SWIDTH 480 0
DWIDTH 8 0
BBX 6 6 1 1
BITMAP
6C
CC
D8
D8
CC
6C
ENDCHAR
STARTCHAR 00AC
ENCODING 172
SWIDTH 540 0
DWIDTH 9 0
BBX 8 5 0 2
BITMAP
FF
FF
03
03
03
ENDCHAR
STARTCHAR 00AD
ENCODING 173
SWIDTH 360 0
DWIDTH 6 0
BBX 4 2 1 3
BITMAP
F0
F0
ENDCHAR
STARTCHAR 00AE
ENCODING 174
SWIDTH 840 0
DWIDTH 14 0
BBX 12 13 1 0
BITMAP
0F00
3FC0
70E0
7E60
DF30
D930
DF30
DF30
DB30
7B60
70E0
3FC0
0F00
ENDCHAR
STARTCHAR 00AF
ENCODING 175
SWIDTH 420 0
DWIDTH 7 0
BBX 5 1 1 10
BITMAP
F8
ENDCHAR
STARTCHAR 00B0
ENCODING 176
SWIDTH 360 0
DWIDTH 6 0
BBX 5 5 1 8
BITMAP
70
F8
D8
F8
70
ENDCHAR
STARTCHAR 00B1
ENCODING 177
SWIDTH 540 0
DWIDTH 9 0
BBX 7 10 1 1
BITMAP
18
18
18
FE
FE
18
18
00
FE
FE
ENDCHAR
STARTCHAR 00B2
ENCODING 178
SWIDTH 360 0
DWIDTH 6 0
BBX 4 5 1 8
BITMAP
70
10
30
60
F0
ENDCHAR
STARTCHAR 00B3
ENCODING 179
SWIDTH 300 0
DWIDTH 5 0
BBX 3 5 1 8
BITMAP
E0
20
C0
20
E0
ENDCHAR
STARTCHAR 00B4
ENCODING 180
SWIDTH 300 0
DWIDTH 5 0
BBX 4 3 1 9
BITMAP
20
70
C0
ENDCHAR
STARTCHAR 00B5
ENCODING 181
SWIDTH 540 0
DWIDTH 9 0
BBX 7 12 1 -5
BITMAP
C6
C6
C6
C6
C6
FE
FA
C0
C0
C0
C0
C0
ENDCHAR
STARTCHAR 00B6
ENCODING 182
SWIDTH 780 0
DWIDTH 13 0
BBX 11 17 1 -5
BITMAP
3FE0
7FE0
FCC0
FCC0
FCC0
FCC0
7CC0
0CC0
0CC0
0CC0
0CC0
0CC0
0CC0
0CC0
0CC0
0CC0
0CC0
ENDCHAR
STARTCHAR 00B7
ENCODING 183
SWIDTH 300 0
DWIDTH 5 0
BBX 3 3 1 3
BITMAP
E0
E0
E0
ENDCHAR
STARTCHAR 00B8
ENCODING 184
SWIDTH 240 0
DWIDTH 4 0
BBX 3 4 0 -4
BITMAP
C0
60
20
E0
ENDCHAR
STARTCHAR 00B9
ENCODING 185
SWIDTH 180 0
DWIDTH 3 0
BBX 2 5 0 8
BITMAP
C0
C0
40
40
40
ENDCHAR
STARTCHAR 00BA
ENCODING 186
SWIDTH 360 0
DWIDTH 6 0
BBX 4 5 1 7
BITMAP
E0
B0
90
90
F0
ENDCHAR
STARTCHAR 00BB
ENCODING 187
SWIDTH 480 0
DWIDTH 8 0
BBX 6 6 1 1
BITMAP
98
CC
6C
6C
CC
D8
ENDCHAR
STARTCHAR 00BC
ENCODING 188
SWIDTH 660 0
DWIDTH 11 0
BBX 10 12 0 0
BITMAP
6180
E100
6300
6200
6600
0400
0C00
18C0
19C0
32C0
37C0
60C0
ENDCHAR
STARTCHAR 00BD
ENCODING 189
SWIDTH 660 0
DWIDTH 11 0
BBX 10 12 0 0
BITMAP
6180
E100
6300
6200
6600
0400
0C00
1B80
18C0
30C0
3100
63C0
ENDCHAR
STARTCHAR 00BE
ENCODING 190
SWIDTH 780 0
DWIDTH 13 0
BBX 11 12 1 0
BITMAP
E100
3300
E200
3600
E400
0C00
0800
18C0
11C0
31C0
23E0
60C0
ENDCHAR
STARTCHAR 00BF
ENCODING 191
SWIDTH 480 0
DWIDTH 8 0
BBX 6 12 1 -5
BITMAP
18
38
10
00
00
30
30
60
C0
C4
FC
78
ENDCHAR
STARTCHAR 00C0
ENCODING 192
SWIDTH 660 0
DWIDTH 11 0
BBX 11 16 0 0
BITMAP
0800
0E00
0200
0000
0400
0600
0E00
0E00
1B00
1B00
3980
3180
7FC0
7FC0
E0E0
C060
ENDCHAR
STARTCHAR 00C1
ENCODING 193
SWIDTH 660 0
DWIDTH 11 0
BBX 11 16 0 0
BITMAP
0200
0E00
0800
0000
0400
0600
0E00
0E00
1B00
1B00
3980
3180
7FC0
7FC0
E0E0
C060
ENDCHAR
STARTCHAR 00C2
ENCODING 194
SWIDTH 660 0
DWIDTH 11 0
BBX 11 16 0 0
BITMAP
0400
0E00
1B00
0000
0400
0600
0E00
0E00
1B00
1B00
3980
3180
7FC0
7FC0
E0E0
C060
ENDCHAR
STARTCHAR 00C3
ENCODING 195
SWIDTH 660 0
DWIDTH 11 0
BBX 11 16 0 0
BITMAP
0900
1F00
1200
0000
0400
0600
0E00
0E00
1B00
1B00
3980
3180
7FC0
7FC0
E0E0
C060
ENDCHAR
STARTCHAR 00C4
ENCODING 196
SWIDTH 600 0
DWIDTH 10 0
BBX 10 15 0 0
BITMAP
3300
3300
0000
0400
0C00
0C00
1E00
1E00
3300
3300
6180
7F80
FFC0
C0C0
C0C0
ENDCHAR
STARTCHAR 00C5
ENCODING 197
SWIDTH 720 0
DWIDTH 12 0
BBX 12 17 0 0
BITMAP
0600
0900
0900
0600
0000
0600
0600
0600
0F00
0F00
1980
1980
30C0
3FC0
7FE0
6060
E070
ENDCHAR
STARTCHAR 00C6
ENCODING 198
SWIDTH 900 0
DWIDTH 15 0
BBX 15 12 0 0
BITMAP
01FE
03FE
0380
0780
0F80
0DFC
1DFC
1980
3F80
7F80
61FE
C1FE
ENDCHAR
STARTCHAR 00C7
ENCODING 199
SWIDTH 720 0
DWIDTH 12 0
BBX 11 16 1 -4
BITMAP
1F00
3FC0
7080
E000
C000
C000
C000
C000
6000
7040
3FE0
0F80
0600
0700
0100
0700
ENDCHAR
STARTCHAR 00C8
ENCODING 200
SWIDTH 600 0
DWIDTH 10 0
BBX 8 16 2 0
BITMAP
20
38
08
00
FF
FF
C0
C0
C0
FE
FE
C0
C0
C0
FF
FF
ENDCHAR
STARTCHAR 00C9
ENCODING 201
SWIDTH 600 0
DWIDTH 10 0
BBX 8 16 2 0
BITMAP
08
38
20
00
FF
FF
C0
C0
C0
FE
FE
C0
C0
C0
FF
FF
ENDCHAR
STARTCHAR 00CA
ENCODING 202
SWIDTH 600 0
DWIDTH 10 0
BBX 8 16 2 0
BITMAP
10
38
44
00
FF
FF
C0
C0
C0
FE
FE
C0
C0
C0
FF
FF
ENDCHAR
STARTCHAR 00CB
ENCODING 203
SWIDTH 600 0
DWIDTH 10 0
BBX 8 15 2 0
BITMAP
66
66
00
FF
FF
C0
C0
C0
FE
FE
C0
C0
C0
FF
FF
ENDCHAR
STARTCHAR 00CC
ENCODING 204
SWIDTH 300 0
DWIDTH 5 0
BBX 3 16 1 0
BITMAP
80
E0
20
00
60
60
60
60
60
60
60
60
60
60
60
60
ENDCHAR
STARTCHAR 00CD
ENCODING 205
SWIDTH 300 0
DWIDTH 5 0
BBX 3 16 1 0
BITMAP
20
E0
80
00
60
60
60
60
60
60
60
60
60
60
60
60
ENDCHAR
STARTCHAR 00CE
ENCODING 206
SWIDTH 300 0
DWIDTH 5 0
BBX 4 16 1 0
BITMAP
60
F0
90
00
60
60
60
60
60
60
60
60
60
60
60
60
ENDCHAR
STARTCHAR 00CF
ENCODING 207
SWIDTH 360 0
DWIDTH 6 0
BBX 6 15 0 0
BITMAP
CC
CC
00
10
10
10
10
10
10
10
10
10
10
10
10
ENDCHAR
STARTCHAR 00D0
ENCODING 208
SWIDTH 780 0
DWIDTH 13 0
BBX 11 12 1 0
BITMAP
7E00
7F80
61C0
60C0
6060
6060
FC60
6060
60C0
61C0
7F80
7E00
ENDCHAR
STARTCHAR 00D1
ENCODING 209
SWIDTH 780 0
DWIDTH 13 0
BBX 10 16 2 0
BITMAP
1A00
3E00
2400
0000
80C0
C0C0
E0C0
F0C0
F8C0
DCC0
CEC0
C7C0
C3C0
C1C0
C0C0
C040
ENDCHAR
STARTCHAR 00D2
ENCODING 210
SWIDTH 780 0
DWIDTH 13 0
BBX 12 16 1 0
BITMAP
0800
0E00
0200
0000
1F00
3FC0
70E0
E060
C030
C030
C030
C030
E060
70E0
3FC0
1F00
ENDCHAR
STARTCHAR 00D3
ENCODING 211
SWIDTH 780 0
DWIDTH 13 0
BBX 12 16 1 0
BITMAP
0200
0E00
0800
0000
1F00
3FC0
70E0
E060
C030
C030
C030
C030
E060
70E0
3FC0
1F00
ENDCHAR
STARTCHAR 00D4
ENCODING 212
SWIDTH 780 0
DWIDTH 13 0
BBX 12 16 1 0
BITMAP
0400
0F00
0900
0000
1F00
3FC0
70E0
E060
C030
C030
C030
C030
E060
70E0
3FC0
1F00
ENDCHAR
STARTCHAR 00D5
ENCODING 213
SWIDTH 780 0
DWIDTH 13 0
BBX 12 16 1 0
BITMAP
0D00
1F00
1200
0000
1F00
3FC0
70E0
E060
C030
C030
C030
C030
E060
70E0
3FC0
1F00
ENDCHAR
STARTCHAR 00D6
ENCODING 214
SWIDTH 780 0
DWIDTH 13 0
BBX 12 16 1 0
BITMAP
1980
1980
0000
0000
1F00
3FC0
70E0
E060
C030
C030
C030
C030
E060
70E0
3FC0
1F00
ENDCHAR
STARTCHAR 00D7
ENCODING 215
SWIDTH 480 0
DWIDTH 8 0
BBX 6 6 1 3
BITMAP
C8
D8
78
70
F8
CC
ENDCHAR
STARTCHAR 00D8
ENCODING 216
SWIDTH 780 0
DWIDTH 13 0
BBX 12 12 1 0
BITMAP
0F90
3FE0
70E0
60E0
C130
C230
C430
C830
F060
70E0
7FC0
9F00
ENDCHAR
STARTCHAR 00D9
ENCODING 217
SWIDTH 660 0
DWIDTH 11 0
BBX 9 16 1 0
BITMAP
1800
1C00
0600
0000
C180
C180
C180
C180
C180
C180
C180
C180
C180
E380
7F00
3E00
ENDCHAR
STARTCHAR 00DA
ENCODING 218
SWIDTH 660 0
DWIDTH 11 0
BBX 9 16 1 0
BITMAP
0600
0E00
1800
0000
C180
C180
C180
C180
C180
C180
C180
C180
C180
E380
7F00
3E00
ENDCHAR
STARTCHAR 00DB
ENCODING 219
SWIDTH 660 0
DWIDTH 11 0
BBX 9 16 1 0
BITMAP
0800
1C00
2200
0000
C180
C180
C180
C180
C180
C180
C180
C180
C180
E380
7F00
3E00
ENDCHAR
STARTCHAR 00DC
ENCODING 220
SWIDTH 660 0
DWIDTH 11 0
BBX 9 16 1 0
BITMAP
3300
3300
0000
0000
C180
C180
C180
C180
C180
C180
C180
C180
C180
E380
7F00
3E00
ENDCHAR
STARTCHAR 00DD
ENCODING 221
SWIDTH 600 0
DWIDTH 10 0
BBX 10 16 0 0
BITMAP
0400
0E00
1800
0000
E1C0
6180
3300
3F00
1E00
0C00
0C00
0C00
0C00
0C00
0C00
0C00
ENDCHAR
STARTCHAR 00DE
ENCODING 222
SWIDTH 600 0
DWIDTH 10 0
BBX 8 12 2 0
BITMAP
C0
C0
FC
FE
C7
C3
C3
C7
FE
FC
C0
C0
ENDCHAR
STARTCHAR 00DF
ENCODING 223
SWIDTH 540 0
DWIDTH 9 0
BBX 7 12 1 0
BITMAP
3C
7E
E6
C6
CC
D8
D8
CC
C6
C6
DE
CC
ENDCHAR
STARTCHAR 00E0
ENCODING 224
SWIDTH 480 0
DWIDTH 8 0
BBX 6 12 1 0
BITMAP
40
70
18
00
00
78
7C
0C
7C
CC
FC
74
ENDCHAR
STARTCHAR 00E1
ENCODING 225
SWIDTH 480 0
DWIDTH 8 0
BBX 6 12 1 0
BITMAP
10
38
60
00
00
78
7C
0C
7C
CC
FC
74
ENDCHAR
STARTCHAR 00E2
ENCODING 226
SWIDTH 480 0
DWIDTH 8 0
BBX 6 12 1 0
BITMAP
10
78
48
00
00
78
7C
0C
7C
CC
FC
74
ENDCHAR
STARTCHAR 00E3
ENCODING 227
SWIDTH 480 0
DWIDTH 8 0
BBX 6 12 1 0
BITMAP
68
F8
90
00
00
78
7C
0C
7C
CC
FC
74
ENDCHAR
STARTCHAR 00E4
ENCODING 228
SWIDTH 480 0
DWIDTH 8 0
BBX 6 12 1 0
BITMAP
CC
CC
00
00
00
78
7C
0C
7C
CC
FC
74
ENDCHAR
STARTCHAR 00E5
ENCODING 229
SWIDTH 480 0
DWIDTH 8 0
BBX 6 12 1 0
BITMAP
30
48
48
30
00
78
7C
0C
7C
CC
FC
74
ENDCHAR
STARTCHAR 00E6
ENCODING 230
SWIDTH 720 0
DWIDTH 12 0
BBX 10 7 1 0
BITMAP
7B80
7FC0
7FC0
FFC0
CC00
FFC0
7380
ENDCHAR
STARTCHAR 00E7
ENCODING 231
SWIDTH 420 0
DWIDTH 7 0
BBX 6 11 1 -4
BITMAP
38
7C
C0
C0
C0
7C
38
30
18
08
38
ENDCHAR
STARTCHAR 00E8
ENCODING 232
SWIDTH 480 0
DWIDTH 8 0
BBX 7 12 1 0
BITMAP
40
70
18
00
00
38
7C
CC
FE
C0
7C
38
ENDCHAR
STARTCHAR 00E9
ENCODING 233
SWIDTH 480 0
DWIDTH 8 0
BBX 7 12 1 0
BITMAP
10
38
60
00
00
38
7C
CC
FE
C0
7C
38
ENDCHAR
STARTCHAR 00EA
ENCODING 234
SWIDTH 480 0
DWIDTH 8 0
BBX 7 12 1 0
BITMAP
10
38
4C
00
00
38
7C
CC
FE
C0
7C
38
ENDCHAR
STARTCHAR 00EB
ENCODING 235
SWIDTH 480 0
DWIDTH 8 0
BBX 7 12 1 0
BITMAP
6C
6C
00
00
00
38
7C
C4
FE
C0
7C
38
ENDCHAR
STARTCHAR 00EC
ENCODING 236
SWIDTH 240 0
DWIDTH 4 0
BBX 4 12 0 0
BITMAP
80
E0
30
00
00
60
60
60
60
60
60
60
ENDCHAR
STARTCHAR 00ED
ENCODING 237
SWIDTH 240 0
DWIDTH 4 0
BBX 4 11 0 1
BITMAP
70
C0
00
00
60
60
60
60
60
60
60
ENDCHAR
STARTCHAR 00EE
ENCODING 238
SWIDTH 240 0
DWIDTH 4 0
BBX 4 12 0 0
BITMAP
60
F0
90
00
00
60
60
60
60
60
60
60
ENDCHAR
STARTCHAR 00EF
ENCODING 239
SWIDTH 180 0
DWIDTH 3 0
BBX 5 12 -1 0
BITMAP
D8
D8
00
00
00
30
30
30
30
30
30
30
ENDCHAR
STARTCHAR 00F0
ENCODING 240
SWIDTH 540 0
DWIDTH 9 0
BBX 8 12 1 0
BITMAP
74
3C
2C
06
3E
7F
E7
C3
C3
C6
7E
3C
ENDCHAR
STARTCHAR 00F1
ENCODING 241
SWIDTH 540 0
DWIDTH 9 0
BBX 7 12 1 0
BITMAP
34
7C
48
00
00
BC
FC
C6
C6
C6
C6
C6
ENDCHAR
STARTCHAR 00F2
ENCODING 242
SWIDTH 480 0
DWIDTH 8 0
BBX 7 12 1 0
BITMAP
20
38
0C
00
00
38
7C
C6
C6
C6
7C
38
ENDCHAR
STARTCHAR 00F3
ENCODING 243
SWIDTH 480 0
DWIDTH 8 0
BBX 7 12 1 0
BITMAP
08
1C
30
00
00
38
7C
C6
C6
C6
7C
38
ENDCHAR
STARTCHAR 00F4
ENCODING 244
SWIDTH 480 0
DWIDTH 8 0
BBX 7 12 1 0
BITMAP
10
38
6C
00
00
38
7C
C6
C6
C6
7C
38
ENDCHAR
STARTCHAR 00F5
ENCODING 245
SWIDTH 480 0
DWIDTH 8 0
BBX 7 12 1 0
BITMAP
34
7C
4C
00
00
38
7C
C6
C6
C6
7C
38
ENDCHAR
STARTCHAR 00F6
ENCODING 246
SWIDTH 480 0
DWIDTH 8 0
BBX 7 12 1 0
BITMAP
6C
6C
00
00
00
38
7C
C6
C6
C6
7C
38
ENDCHAR
STARTCHAR 00F7
ENCODING 247
SWIDTH 540 0
DWIDTH 9 0
BBX 7 8 1 2
BITMAP
18
18
00
FE
FE
00
18
18
ENDCHAR
STARTCHAR 00F8
ENCODING 248
SWIDTH 480 0
DWIDTH 8 0
BBX 7 7 1 0
BITMAP
3A
7C
CE
D6
E6
7C
F8
ENDCHAR
STARTCHAR 00F9
ENCODING 249
SWIDTH 540 0
DWIDTH 9 0
BBX 7 12 1 0
BITMAP
20
70
18
00
00
C6
C6
C6
C6
C6
FE
7A
ENDCHAR
STARTCHAR 00FA
ENCODING 250
SWIDTH 540 0
DWIDTH 9 0
BBX 7 12 1 0
BITMAP
08
38
60
00
00
C6
C6
C6
C6
C6
FE
7A
ENDCHAR
STARTCHAR 00FB
ENCODING 251
SWIDTH 540 0
DWIDTH 9 0
BBX 7 12 1 0
BITMAP
10
78
4C
00
00
C6
C6
C6
C6
C6
FE
7A
ENDCHAR
STARTCHAR 00FC
ENCODING 252
SWIDTH 540 0
DWIDTH 9 0
BBX 7 12 1 0
BITMAP
6C
6C
00
00
00
C6
C6
C6
C6
C6
FE
7E
ENDCHAR
STARTCHAR 00FD
ENCODING 253
SWIDTH 480 0
DWIDTH 8 0
BBX 8 17 0 -5
BITMAP
08
1C
30
00
00
C7
66
66
3C
3C
38
18
30
30
70
60
E0
ENDCHAR
STARTCHAR 00FE
ENCODING 254
SWIDTH 480 0
DWIDTH 8 0
BBX 7 17 1 -5
BITMAP
C0
C0
C0
C0
C0
F8
FC
C6
C6
C6
FC
F8
C0
C0
C0
C0
C0
ENDCHAR
STARTCHAR 00FF
ENCODING 255
SWIDTH 420 0
DWIDTH 7 0
BBX 7 17 0 -5
BITMAP
6C
6C
00
00
00
C6
C6
6C
6C
38
38
30
30
70
60
60
C0
ENDCHAR
STARTCHAR 0100
ENCODING 256
SWIDTH 660 0
DWIDTH 11 0
BBX 11 15 0 0
BITMAP
1F00
0000
0000
0400
0400
0E00
0E00
1B00
1B00
3380
3180
7FC0
7FC0
E0E0
C060
ENDCHAR
STARTCHAR 0101
ENCODING 257
SWIDTH 480 0
DWIDTH 8 0
BBX 6 11 1 0
BITMAP
7C
00
00
00
78
7C
0C
7C
CC
FC
74
ENDCHAR
STARTCHAR 0102
ENCODING 258
SWIDTH 660 0
DWIDTH 11 0
BBX 11 16 0 0
BITMAP
1100
1B00
0E00
0000
0400
0600
0E00
0E00
1B00
1B00
3980
3180
7FC0
7FC0
E0E0
C060
ENDCHAR
STARTCHAR 0103
ENCODING 259
SWIDTH 480 0
DWIDTH 8 0
BBX 6 12 1 0
BITMAP
C8
58
70
00
00
78
7C
0C
7C
CC
FC
74
ENDCHAR
STARTCHAR 0104
ENCODING 260
SWIDTH 720 0
DWIDTH 12 0
BBX 12 16 0 -4
BITMAP
0600
0600
0700
0F00
0F00
1B80
1980
31C0
3FC0
7FE0
6060
E070
0040
00C0
00C0
0070
ENDCHAR
STARTCHAR 0105
ENCODING 261
SWIDTH 480 0
DWIDTH 8 0
BBX 7 11 1 -4
BITMAP
78
7C
0C
7C
CC
FC
74
08
18
18
0E
ENDCHAR
STARTCHAR 0106
ENCODING 262
SWIDTH 660 0
DWIDTH 11 0
BBX 10 16 1 0
BITMAP
0200
0F00
0800
0000
1F00
3FC0
7080
E000
C000
C000
C000
C000
E000
7080
3FC0
1F00
ENDCHAR
STARTCHAR 0107
ENCODING 263
SWIDTH 420 0
DWIDTH 7 0
BBX 6 11 1 1
BITMAP
1C
30
00
00
38
7C
C0
C0
C0
7C
38
ENDCHAR
STARTCHAR 0108
ENCODING 264
SWIDTH 660 0
DWIDTH 11 0
BBX 10 16 1 0
BITMAP
0400
0E00
1B00
0000
1F00
3FC0
7080
E000
C000
C000
C000
C000
E000
7080
3FC0
1F00
ENDCHAR
STARTCHAR 0109
ENCODING 265
SWIDTH 420 0
DWIDTH 7 0
BBX 6 12 1 0
BITMAP
10
38
6C
00
00
38
7C
C0
C0
C0
7C
38
ENDCHAR
STARTCHAR 010A
ENCODING 266
SWIDTH 720 0
DWIDTH 12 0
BBX 10 16 1 0
BITMAP
0600
0600
0000
0000
1F00
3FC0
7080
E000
C000
C000
C000
C000
E000
7080
3FC0
1F00
ENDCHAR
STARTCHAR 010B
ENCODING 267
SWIDTH 480 0
DWIDTH 8 0
BBX 6 12 1 0
BITMAP
18
18
00
00
00
38
7C
C0
C0
C0
7C
38
ENDCHAR
STARTCHAR 010C
ENCODING 268
SWIDTH 660 0
DWIDTH 11 0
BBX 10 16 1 0
BITMAP
1100
1F00
0400
0000
1F00
3FC0
7080
E000
C000
C000
C000
C000
E000
7080
3FC0
1F00
ENDCHAR
STARTCHAR 010D
ENCODING 269
SWIDTH 420 0
DWIDTH 7 0
BBX 6 12 1 0
BITMAP
40
7C
10
00
00
38
7C
C0
C0
C0
7C
38
ENDCHAR
STARTCHAR 010E
ENCODING 270
SWIDTH 720 0
DWIDTH 12 0
BBX 10 16 2 0
BITMAP
2400
3C00
1800
0000
FC00
FF00
C380
C180
C0C0
C0C0
C0C0
C0C0
C180
C380
FF00
FC00
ENDCHAR
STARTCHAR 010F
ENCODING 271
SWIDTH 540 0
DWIDTH 9 0
BBX 11 12 1 0
BITMAP
0660
0660
0620
0640
0600
3E00
7E00
C600
C600
C600
7E00
3A00
ENDCHAR
STARTCHAR 0110
ENCODING 272
SWIDTH 780 0
DWIDTH 13 0
BBX 11 12 1 0
BITMAP
7E00
7F80
61C0
60C0
6060
6060
FC60
6060
60C0
61C0
7F80
7E00
ENDCHAR
STARTCHAR 0111
ENCODING 273
SWIDTH 540 0
DWIDTH 9 0
BBX 8 12 1 0
BITMAP
06
06
3F
06
06
3E
7E
C6
C6
C6
7E
3A
ENDCHAR
STARTCHAR 0112
ENCODING 274
SWIDTH 600 0
DWIDTH 10 0
BBX 8 15 2 0
BITMAP
7C
00
00
FF
FF
C0
C0
C0
FE
FE
C0
C0
C0
FF
FF
ENDCHAR
STARTCHAR 0113
ENCODING 275
SWIDTH 480 0
DWIDTH 8 0
BBX 7 11 1 0
BITMAP
7C
00
00
00
38
7C
CC
FE
C0
7C
38
ENDCHAR
STARTCHAR 0114
ENCODING 276
SWIDTH 600 0
DWIDTH 10 0
BBX 8 16 2 0
BITMAP
40
6C
38
00
FF
FF
C0
C0
C0
FE
FE
C0
C0
C0
FF
FF
ENDCHAR
STARTCHAR 0115
ENCODING 277
SWIDTH 480 0
DWIDTH 8 0
BBX 7 12 1 0
BITMAP
48
48
30
00
00
38
7C
CC
FE
C0
7C
38
ENDCHAR
STARTCHAR 0116
ENCODING 278
SWIDTH 600 0
DWIDTH 10 0
BBX 8 16 2 0
BITMAP
18
18
00
00
FF
FF
C0
C0
C0
FE
FE
C0
C0
C0
FF
FF
ENDCHAR
STARTCHAR 0117
ENCODING 279
SWIDTH 480 0
DWIDTH 8 0
BBX 7 12 1 0
BITMAP
30
30
00
00
00
38
7C
CC
FE
C0
7C
38
ENDCHAR
STARTCHAR 0118
ENCODING 280
SWIDTH 600 0
DWIDTH 10 0
BBX 9 16 2 -4
BITMAP
FF00
FF00
C000
C000
C000
FE00
FE00
C000
C000
C000
FF00
FF00
0200
0600
0600
0380
ENDCHAR
STARTCHAR 0119
ENCODING 281
SWIDTH 480 0
DWIDTH 8 0
BBX 7 11 1 -4
BITMAP
38
7C
C4
FE
C0
E4
7C
10
30
30
1C
ENDCHAR
STARTCHAR 011A
ENCODING 282
SWIDTH 600 0
DWIDTH 10 0
BBX 8 16 2 0
BITMAP
44
38
10
00
FF
FF
C0
C0
C0
FE
FE
C0
C0
C0
FF
FF
ENDCHAR
STARTCHAR 011B
ENCODING 283
SWIDTH 480 0
DWIDTH 8 0
BBX 7 12 1 0
BITMAP
40
78
30
00
00
38
7C
CC
FE
C0
7C
38
ENDCHAR
STARTCHAR 011C
ENCODING 284
SWIDTH 720 0
DWIDTH 12 0
BBX 10 16 1 0
BITMAP
0400
0E00
1900
0000
1F00
3FC0
7080
E000
C000
C000
C3C0
C3C0
E0C0
70C0
3FC0
1F00
ENDCHAR
STARTCHAR 011D
ENCODING 285
SWIDTH 540 0
DWIDTH 9 0
BBX 7 17 1 -5
BITMAP
10
38
4C
00
00
7E
7C
CC
CC
7C
F8
80
FC
7E
C6
FE
7C
ENDCHAR
STARTCHAR 011E
ENCODING 286
SWIDTH 720 0
DWIDTH 12 0
BBX 10 16 1 0
BITMAP
0100
0B00
0E00
0000
1F00
3FC0
7080
E000
C000
C000
C3C0
C3C0
E0C0
70C0
3FC0
1F00
ENDCHAR
STARTCHAR 011F
ENCODING 287
SWIDTH 540 0
DWIDTH 9 0
BBX 7 17 1 -5
BITMAP
48
48
30
00
00
7E
FC
CC
7C
F8
80
80
FC
7E
C6
FE
7C
ENDCHAR
STARTCHAR 0120
ENCODING 288
SWIDTH 720 0
DWIDTH 12 0
BBX 10 16 1 0
BITMAP
0600
0600
0000
0000
1F00
3FC0
7080
E000
C000
C000
C3C0
C3C0
E0C0
70C0
3FC0
1F00
ENDCHAR
STARTCHAR 0121
ENCODING 289
SWIDTH 540 0
DWIDTH 9 0
BBX 7 17 1 -5
BITMAP
18
18
00
00
00
7E
7C
CC
CC
7C
F8
80
FC
7E
C6
FE
7C
ENDCHAR
STARTCHAR 0122
ENCODING 290
SWIDTH 720 0
DWIDTH 12 0
BBX 10 19 1 -7
BITMAP
1F00
3FC0
7080
E000
C000
C000
C3C0
C3C0
E0C0
70C0
3FC0
1F80
0000
0000
0600
0E00
0200
0400
0400
ENDCHAR
STARTCHAR 0123
ENCODING 291
SWIDTH 540 0
DWIDTH 9 0
BBX 7 18 1 -4
BITMAP
10
20
38
38
00
00
7E
7C
CC
CC
7C
F8
80
FC
7E
C6
FE
7C
ENDCHAR
STARTCHAR 0124
ENCODING 292
SWIDTH 780 0
DWIDTH 13 0
BBX 10 16 2 0
BITMAP
0C00
1E00
1200
0000
C0C0
C0C0
C0C0
C0C0
C0C0
FFC0
FFC0
C0C0
C0C0
C0C0
C0C0
C0C0
ENDCHAR
STARTCHAR 0125
ENCODING 293
SWIDTH 540 0
DWIDTH 9 0
BBX 9 15 -1 1
BITMAP
7000
D800
0000
3000
3000
3000
3000
3000
3E00
3F00
3180
3180
3180
3180
3180
ENDCHAR
STARTCHAR 0126
ENCODING 294
SWIDTH 780 0
DWIDTH 13 0
BBX 12 12 1 0
BITMAP
6060
6060
FFF0
6060
6060
7FE0
7FE0
6060
6060
6060
6060
6060
ENDCHAR
STARTCHAR 0127
ENCODING 295
SWIDTH 540 0
DWIDTH 9 0
BBX 8 12 0 0
BITMAP
60
60
F8
60
60
7C
7E
63
63
63
63
63
ENDCHAR
STARTCHAR 0128
ENCODING 296
SWIDTH 300 0
DWIDTH 5 0
BBX 5 16 0 0
BITMAP
68
F8
90
00
30
30
30
30
30
30
30
30
30
30
30
30
ENDCHAR
STARTCHAR 0129
ENCODING 297
SWIDTH 240 0
DWIDTH 4 0
BBX 5 12 -1 0
BITMAP
60
78
98
00
00
30
30
30
30
30
30
30
ENDCHAR
STARTCHAR 012A
ENCODING 298
SWIDTH 300 0
DWIDTH 5 0
BBX 5 15 0 0
BITMAP
F8
00
00
30
30
30
30
30
30
30
30
30
30
30
30
ENDCHAR
STARTCHAR 012B
ENCODING 299
SWIDTH 240 0
DWIDTH 4 0
BBX 5 11 -1 0
BITMAP
F8
00
00
00
30
30
30
30
30
30
30
ENDCHAR
STARTCHAR 012C
ENCODING 300
SWIDTH 300 0
DWIDTH 5 0
BBX 5 16 0 0
BITMAP
08
D8
70
00
30
30
30
30
30
30
30
30
30
30
30
30
ENDCHAR
STARTCHAR 012D
ENCODING 301
SWIDTH 240 0
DWIDTH 4 0
BBX 4 12 0 0
BITMAP
90
90
60
00
00
60
60
60
60
60
60
60
ENDCHAR
STARTCHAR 012E
ENCODING 302
SWIDTH 360 0
DWIDTH 6 0
BBX 4 16 1 -4
BITMAP
60
60
60
60
60
60
60
60
60
60
60
60
40
C0
C0
70
ENDCHAR
STARTCHAR 012F
ENCODING 303
SWIDTH 300 0
DWIDTH 5 0
BBX 4 16 1 -4
BITMAP
60
60
00
00
00
60
60
60
60
60
60
60
40
C0
C0
70
ENDCHAR
STARTCHAR 0130
ENCODING 304
SWIDTH 300 0
DWIDTH 5 0
BBX 2 16 2 0
BITMAP
C0
C0
00
00
C0
C0
C0
C0
C0
C0
C0
C0
C0
C0
C0
C0
ENDCHAR
STARTCHAR 0131
ENCODING 305
SWIDTH 240 0
DWIDTH 4 0
BBX 2 7 1 0
BITMAP
C0
C0
C0
C0
C0
C0
C0
ENDCHAR
STARTCHAR 0132
ENCODING 306
SWIDTH 780 0
DWIDTH 13 0
BBX 10 12 2 0
BITMAP
C0C0
C0C0
C0C0
C0C0
C0C0
C0C0
C0C0
C0C0
C0C0
C0C0
CF80
C700
ENDCHAR
STARTCHAR 0133
ENCODING 307
SWIDTH 480 0
DWIDTH 8 0
BBX 6 17 1 -5
BITMAP
CC
CC
00
00
00
CC
CC
CC
CC
CC
CC
CC
0C
0C
0C
78
78
ENDCHAR
STARTCHAR 0134
ENCODING 308
SWIDTH 420 0
DWIDTH 7 0
BBX 7 16 0 0
BITMAP
0C
1E
12
00
0C
0C
0C
0C
0C
0C
0C
0C
0C
0C
F8
70
ENDCHAR
STARTCHAR 0135
ENCODING 309
SWIDTH 240 0
DWIDTH 4 0
BBX 6 17 -2 -5
BITMAP
18
3C
24
00
00
18
18
18
18
18
18
18
18
18
18
F0
F0
ENDCHAR
STARTCHAR 0136
ENCODING 310
SWIDTH 720 0
DWIDTH 12 0
BBX 9 18 2 -7
BITMAP
C380
C700
CE00
DC00
FC00
F800
F800
DC00
CE00
C700
C300
C380
0000
0000
1C00
1C00
0400
0800
ENDCHAR
STARTCHAR 0137
ENCODING 311
SWIDTH 480 0
DWIDTH 8 0
BBX 7 18 1 -7
BITMAP
C0
C0
C0
C0
C0
CE
DC
F8
F8
D8
CC
C6
00
00
38
38
08
10
ENDCHAR
STARTCHAR 0138
ENCODING 312
SWIDTH 480 0
DWIDTH 8 0
BBX 7 7 1 0
BITMAP
CE
DC
F8
F0
F8
DC
CE
ENDCHAR
STARTCHAR 0139
ENCODING 313
SWIDTH 540 0
DWIDTH 9 0
BBX 8 16 1 0
BITMAP
20
E0
80
00
60
60
60
60
60
60
60
60
60
60
7F
7F
ENDCHAR
STARTCHAR 013A
ENCODING 314
SWIDTH 240 0
DWIDTH 4 0
BBX 4 15 0 1
BITMAP
70
E0
00
60
60
60
60
60
60
60
60
60
60
60
60
ENDCHAR
STARTCHAR 013B
ENCODING 315
SWIDTH 540 0
DWIDTH 9 0
BBX 7 18 2 -7
BITMAP
C0
C0
C0
C0
C0
C0
C0
C0
C0
C0
FE
FE
00
00
38
38
08
10
ENDCHAR
STARTCHAR 013C
ENCODING 316
SWIDTH 240 0
DWIDTH 4 0
BBX 2 18 1 -7
BITMAP
C0
C0
C0
C0
C0
C0
C0
C0
C0
C0
C0
C0
00
00
C0
C0
40
80
ENDCHAR
STARTCHAR 013D
ENCODING 317
SWIDTH 540 0
DWIDTH 9 0
BBX 7 12 2 0
BITMAP
CE
CE
C2
C4
C0
C0
C0
C0
C0
C0
FE
FE
ENDCHAR
STARTCHAR 013E
ENCODING 318
SWIDTH 240 0
DWIDTH 4 0
BBX 6 12 1 0
BITMAP
CC
CC
C4
C8
C0
C0
C0
C0
C0
C0
C0
C0
ENDCHAR
STARTCHAR 013F
ENCODING 319
SWIDTH 660 0
DWIDTH 11 0
BBX 8 12 2 0
BITMAP
C0
C0
C0
C0
C0
C3
C3
C0
C0
C0
FE
FE
ENDCHAR
STARTCHAR 0140
ENCODING 320
SWIDTH 360 0
DWIDTH 6 0
BBX 5 12 1 0
BITMAP
C0
C0
C0
C0
C0
D8
D8
C0
C0
C0
C0
C0
ENDCHAR
STARTCHAR 0141
ENCODING 321
SWIDTH 540 0
DWIDTH 9 0
BBX 8 12 1 0
BITMAP
60
60
60
60
70
60
E0
60
60
60
7F
7F
ENDCHAR
STARTCHAR 0142
ENCODING 322
SWIDTH 240 0
DWIDTH 4 0
BBX 4 12 0 0
BITMAP
60
60
60
60
70
60
E0
60
60
60
60
60
ENDCHAR
STARTCHAR 0143
ENCODING 323
SWIDTH 780 0
DWIDTH 13 0
BBX 10 16 2 0
BITMAP
0400
1C00
1000
0000
80C0
C0C0
E0C0
F0C0
F8C0
DCC0
CEC0
C7C0
C3C0
C1C0
C0C0
C040
ENDCHAR
STARTCHAR 0144
ENCODING 324
SWIDTH 540 0
DWIDTH 9 0
BBX 7 12 1 0
BITMAP
08
38
20
00
00
BC
FC
C6
C6
C6
C6
C6
ENDCHAR
STARTCHAR 0145
ENCODING 325
SWIDTH 780 0
DWIDTH 13 0
BBX 10 19 2 -7
BITMAP
80C0
C0C0
E0C0
F0C0
F8C0
DCC0
CEC0
C7C0
C3C0
C1C0
C0C0
C040
0000
0000
0C00
0E00
0200
0400
0400
ENDCHAR
STARTCHAR 0146
ENCODING 326
SWIDTH 540 0
DWIDTH 9 0
BBX 7 13 1 -7
BITMAP
BC
FC
C6
C6
C6
C6
C6
00
00
38
38
08
10
ENDCHAR
STARTCHAR 0147
ENCODING 327
SWIDTH 780 0
DWIDTH 13 0
BBX 10 16 2 0
BITMAP
1200
1E00
0C00
0000
80C0
C0C0
E0C0
F0C0
F8C0
DCC0
CEC0
C7C0
C3C0
C1C0
C0C0
C040
ENDCHAR
STARTCHAR 0148
ENCODING 328
SWIDTH 540 0
DWIDTH 9 0
BBX 7 12 1 0
BITMAP
44
38
10
00
00
BC
FC
C6
C6
C6
C6
C6
ENDCHAR
STARTCHAR 0149
ENCODING 329
SWIDTH 540 0
DWIDTH 9 0
BBX 10 12 -2 0
BITMAP
C000
C000
4000
8000
0000
1780
1F80
18C0
18C0
18C0
18C0
18C0
ENDCHAR
STARTCHAR 014A
ENCODING 330
SWIDTH 780 0
DWIDTH 13 0
BBX 10 17 2 -5
BITMAP
80C0
C0C0
E0C0
F0C0
F8C0
DCC0
CEC0
C7C0
C3C0
C1C0
C0C0
C0C0
00C0
00C0
00C0
0780
0780
ENDCHAR
STARTCHAR 014B
ENCODING 331
SWIDTH 540 0
DWIDTH 9 0
BBX 7 12 1 -5
BITMAP
BC
FC
C6
C6
C6
C6
C6
06
06
06
3C
3C
ENDCHAR
STARTCHAR 014C
ENCODING 332
SWIDTH 780 0
DWIDTH 13 0
BBX 12 15 1 0
BITMAP
1F80
0000
0000
1F00
3FC0
70E0
E060
C030
C030
C030
C030
E060
70E0
3FC0
1F00
ENDCHAR
STARTCHAR 014D
ENCODING 333
SWIDTH 480 0
DWIDTH 8 0
BBX 7 11 1 0
BITMAP
7C
00
00
00
38
7C
C6
C6
C6
7C
38
ENDCHAR
STARTCHAR 014E
ENCODING 334
SWIDTH 780 0
DWIDTH 13 0
BBX 12 16 1 0
BITMAP
0100
1B00
0E00
0000
1F00
3FC0
70E0
E060
C030
C030
C030
C030
E060
70E0
3FC0
1F00
ENDCHAR
STARTCHAR 014F
ENCODING 335
SWIDTH 480 0
DWIDTH 8 0
BBX 7 12 1 0
BITMAP
24
24
18
00
00
38
7C
C6
C6
C6
7C
38
ENDCHAR
STARTCHAR 0150
ENCODING 336
SWIDTH 780 0
DWIDTH 13 0
BBX 12 16 1 0
BITMAP
0D80
0D80
0900
0000
1F00
3FC0
70E0
E060
C030
C030
C030
C030
E060
70E0
3FC0
1F00
ENDCHAR
STARTCHAR 0151
ENCODING 337
SWIDTH 480 0
DWIDTH 8 0
BBX 7 12 1 0
BITMAP
16
36
24
00
00
38
7C
C6
C6
C6
7C
38
ENDCHAR
STARTCHAR 0152
ENCODING 338
SWIDTH 960 0
DWIDTH 16 0
BBX 15 12 1 0
BITMAP
1FFE
3FFE
7180
E180
C180
C1FC
C1FC
C180
E180
7180
3FFE
1FFE
ENDCHAR
STARTCHAR 0153
ENCODING 339
SWIDTH 780 0
DWIDTH 13 0
BBX 12 7 1 0
BITMAP
39C0
7FE0
C660
C7F0
C600
7FE0
39C0
ENDCHAR
STARTCHAR 0154
ENCODING 340
SWIDTH 720 0
DWIDTH 12 0
BBX 9 16 2 0
BITMAP
0800
3800
2000
0000
FE00
FF00
C180
C180
C380
FF00
FE00
CE00
C700
C700
C300
C380
ENDCHAR
STARTCHAR 0155
ENCODING 341
SWIDTH 360 0
DWIDTH 6 0
BBX 5 11 1 1
BITMAP
70
C0
00
00
B8
F0
C0
C0
C0
C0
C0
ENDCHAR
STARTCHAR 0156
ENCODING 342
SWIDTH 720 0
DWIDTH 12 0
BBX 9 18 2 -7
BITMAP
FE00
FF00
C180
C180
C380
FF00
FE00
C600
C700
C300
C380
C180
0000
0000
1C00
1C00
0400
0800
ENDCHAR
STARTCHAR 0157
ENCODING 343
SWIDTH 300 0
DWIDTH 5 0
BBX 5 13 1 -7
BITMAP
B8
F0
C0
C0
C0
C0
C0
00
00
C0
C0
40
80
ENDCHAR
STARTCHAR 0158
ENCODING 344
SWIDTH 720 0
DWIDTH 12 0
BBX 9 16 2 0
BITMAP
2400
3C00
1800
0000
FE00
FF00
C180
C180
C380
FF00
FE00
CE00
C700
C700
C300
C380
ENDCHAR
STARTCHAR 0159
ENCODING 345
SWIDTH 360 0
DWIDTH 6 0
BBX 5 12 1 0
BITMAP
90
F0
40
00
00
B8
F0
C0
C0
C0
C0
C0
ENDCHAR
STARTCHAR 015A
ENCODING 346
SWIDTH 480 0
DWIDTH 8 0
BBX 7 16 1 0
BITMAP
08
38
20
00
7C
FE
C4
C0
E0
78
3C
0E
06
C6
FC
78
ENDCHAR
STARTCHAR 015B
ENCODING 347
SWIDTH 420 0
DWIDTH 7 0
BBX 5 12 1 0
BITMAP
10
70
C0
00
00
70
F0
C0
70
18
F8
F0
ENDCHAR
STARTCHAR 015C
ENCODING 348
SWIDTH 480 0
DWIDTH 8 0
BBX 7 16 1 0
BITMAP
10
38
6C
00
7C
FE
C4
C0
E0
78
3C
0E
06
C6
FC
78
ENDCHAR
STARTCHAR 015D
ENCODING 349
SWIDTH 420 0
DWIDTH 7 0
BBX 5 12 1 0
BITMAP
20
70
D8
00
00
70
F0
C0
70
18
F8
F0
ENDCHAR
STARTCHAR 015E
ENCODING 350
SWIDTH 480 0
DWIDTH 8 0
BBX 7 16 1 -4
BITMAP
7C
FE
C4
C0
E0
78
3C
0E
06
86
FC
78
30
18
08
38
ENDCHAR
STARTCHAR 015F
ENCODING 351
SWIDTH 420 0
DWIDTH 7 0
BBX 5 11 1 -4
BITMAP
70
F0
C0
70
18
F8
F0
60
30
10
70
ENDCHAR
STARTCHAR 0160
ENCODING 352
SWIDTH 480 0
DWIDTH 8 0
BBX 7 16 1 0
BITMAP
44
7C
10
00
7C
FE
C4
C0
E0
78
3C
0E
06
C6
FC
78
ENDCHAR
STARTCHAR 0161
ENCODING 353
SWIDTH 420 0
DWIDTH 7 0
BBX 5 12 1 0
BITMAP
88
F8
20
00
00
70
F0
C0
70
18
F8
F0
ENDCHAR
STARTCHAR 0162
ENCODING 354
SWIDTH 600 0
DWIDTH 10 0
BBX 8 18 1 -7
BITMAP
FF
FF
18
18
18
18
18
18
18
18
18
18
00
00
18
18
08
10
ENDCHAR
STARTCHAR 0163
ENCODING 355
SWIDTH 420 0
DWIDTH 7 0
BBX 5 16 1 -7
BITMAP
60
60
F8
F8
60
60
60
78
78
00
00
30
30
10
20
20
ENDCHAR
STARTCHAR 0164
ENCODING 356
SWIDTH 600 0
DWIDTH 10 0
BBX 8 16 1 0
BITMAP
24
3C
18
00
FF
FF
18
18
18
18
18
18
18
18
18
18
ENDCHAR
STARTCHAR 0165
ENCODING 357
SWIDTH 360 0
DWIDTH 6 0
BBX 8 12 1 0
BITMAP
03
03
01
62
64
F8
F8
60
60
60
78
78
ENDCHAR
STARTCHAR 0166
ENCODING 358
SWIDTH 600 0
DWIDTH 10 0
BBX 8 12 1 0
BITMAP
FF
FF
18
18
18
18
7E
18
18
18
18
18
ENDCHAR
STARTCHAR 0167
ENCODING 359
SWIDTH 420 0
DWIDTH 7 0
BBX 5 9 1 0
BITMAP
60
60
F8
F8
60
F8
60
78
78
ENDCHAR
STARTCHAR 0168
ENCODING 360
SWIDTH 660 0
DWIDTH 11 0
BBX 9 16 1 0
BITMAP
1800
1E00
2600
0000
C180
C180
C180
C180
C180
C180
C180
C180
C180
E380
7F00
3E00
ENDCHAR
STARTCHAR 0169
ENCODING 361
SWIDTH 540 0
DWIDTH 9 0
BBX 7 12 1 0
BITMAP
64
7C
58
00
00
C6
C6
C6
C6
C6
FE
7A
ENDCHAR
STARTCHAR 016A
ENCODING 362
SWIDTH 660 0
DWIDTH 11 0
BBX 9 15 1 0
BITMAP
1E00
0000
0000
E180
E180
E180
E180
E180
E180
E180
E180
E180
E380
7F00
3E00
ENDCHAR
STARTCHAR 016B
ENCODING 363
SWIDTH 540 0
DWIDTH 9 0
BBX 7 11 1 0
BITMAP
7C
00
00
00
C6
C6
C6
C6
C6
FE
7A
ENDCHAR
STARTCHAR 016C
ENCODING 364
SWIDTH 660 0
DWIDTH 11 0
BBX 9 16 1 0
BITMAP
1200
1200
0C00
0000
C180
C180
C180
C180
C180
C180
C180
C180
C180
E380
7F00
3E00
ENDCHAR
STARTCHAR 016D
ENCODING 365
SWIDTH 540 0
DWIDTH 9 0
BBX 7 12 1 0
BITMAP
4C
48
38
00
00
C6
C6
C6
C6
C6
FE
7A
ENDCHAR
STARTCHAR 016E
ENCODING 366
SWIDTH 660 0
DWIDTH 11 0
BBX 9 17 1 0
BITMAP
0C00
1200
1200
0C00
0000
C180
C180
C180
C180
C180
C180
C180
C180
C180
E380
7F00
3E00
ENDCHAR
STARTCHAR 016F
ENCODING 367
SWIDTH 540 0
DWIDTH 9 0
BBX 7 12 1 0
BITMAP
30
48
48
30
00
C6
C6
C6
C6
C6
FE
7E
ENDCHAR
STARTCHAR 0170
ENCODING 368
SWIDTH 660 0
DWIDTH 11 0
BBX 9 16 1 0
BITMAP
0F00
1B00
1200
0000
C180
C180
C180
C180
C180
C180
C180
C180
C180
E380
7F00
3E00
ENDCHAR
STARTCHAR 0171
ENCODING 369
SWIDTH 540 0
DWIDTH 9 0
BBX 7 12 1 0
BITMAP
36
2C
68
00
00
C6
C6
C6
C6
C6
FE
7A
ENDCHAR
STARTCHAR 0172
ENCODING 370
SWIDTH 660 0
DWIDTH 11 0
BBX 9 16 1 -4
BITMAP
C180
C180
C180
C180
C180
C180
C180
C180
C180
E380
7F00
3E00
0800
1800
1800
0E00
ENDCHAR
STARTCHAR 0173
ENCODING 371
SWIDTH 540 0
DWIDTH 9 0
BBX 8 11 1 -4
BITMAP
C6
C6
C6
C6
C6
FE
7A
04
0C
0C
07
ENDCHAR
STARTCHAR 0174
ENCODING 372
SWIDTH 900 0
DWIDTH 15 0
BBX 13 16 1 0
BITMAP
0200
0700
0880
0000
C218
C218
C718
C718
6DB0
6DB0
6DB0
78F0
38E0
3060
3060
1040
ENDCHAR
STARTCHAR 0175
ENCODING 373
SWIDTH 600 0
DWIDTH 10 0
BBX 10 12 0 0
BITMAP
0C00
1E00
1200
0000
0000
C4C0
6CC0
6F80
7F80
3380
3100
2100
ENDCHAR
STARTCHAR 0176
ENCODING 374
SWIDTH 600 0
DWIDTH 10 0
BBX 10 16 0 0
BITMAP
0C00
1E00
1200
0000
E1C0
6180
3300
3F00
1E00
0C00
0C00
0C00
0C00
0C00
0C00
0C00
ENDCHAR
STARTCHAR 0177
ENCODING 375
SWIDTH 480 0
DWIDTH 8 0
BBX 8 17 0 -5
BITMAP
18
3C
24
00
00
C7
66
66
3C
3C
38
18
30
30
70
60
E0
ENDCHAR
STARTCHAR 0178
ENCODING 376
SWIDTH 600 0
DWIDTH 10 0
BBX 9 15 1 0
BITMAP
6600
6600
0000
C180
E380
6700
3600
3E00
1C00
0800
0800
0800
0800
0800
0800
ENDCHAR
STARTCHAR 0179
ENCODING 377
SWIDTH 600 0
DWIDTH 10 0
BBX 8 16 1 0
BITMAP
04
1E
10
00
FF
FE
06
0C
0C
18
18
30
70
60
FF
FF
ENDCHAR
STARTCHAR 017A
ENCODING 378
SWIDTH 420 0
DWIDTH 7 0
BBX 5 12 1 0
BITMAP
10
70
C0
00
00
F8
F8
30
30
60
78
F8
ENDCHAR
STARTCHAR 017B
ENCODING 379
SWIDTH 600 0
DWIDTH 10 0
BBX 8 16 1 0
BITMAP
18
18
00
00
FF
FF
0E
0E
1C
1C
38
38
70
70
FF
FF
ENDCHAR
STARTCHAR 017C
ENCODING 380
SWIDTH 420 0
DWIDTH 7 0
BBX 5 12 1 0
BITMAP
30
30
00
00
00
F8
F8
30
30
60
78
F8
ENDCHAR
STARTCHAR 017D
ENCODING 381
SWIDTH 600 0
DWIDTH 10 0
BBX 8 16 1 0
BITMAP
24
3C
18
00
FF
FE
06
0C
0C
18
18
30
70
60
FF
FF
ENDCHAR
STARTCHAR 017E
ENCODING 382
SWIDTH 420 0
DWIDTH 7 0
BBX 5 12 1 0
BITMAP
48
78
20
00
00
F8
F8
30
30
60
78
F8
ENDCHAR
STARTCHAR 0192
ENCODING 402
SWIDTH 480 0
DWIDTH 8 0
BBX 8 17 0 -5
BITMAP
0F
1F
18
18
18
7E
7E
18
18
18
18
18
18
18
18
F0
F0
ENDCHAR
STARTCHAR 01FA
ENCODING 506
SWIDTH 720 0
DWIDTH 12 0
BBX 12 18 0 0
BITMAP
0200
0600
0800
0600
0900
0900
0600
0600
0E00
0F00
0F00
1980
1980
31C0
3FC0
7FE0
6060
E070
ENDCHAR
STARTCHAR 01FB
ENCODING 507
SWIDTH 480 0
DWIDTH 8 0
BBX 6 14 1 0
BITMAP
10
70
40
30
48
48
30
78
7C
0C
7C
CC
FC
74
ENDCHAR
STARTCHAR 01FC
ENCODING 508
SWIDTH 900 0
DWIDTH 15 0
BBX 15 16 0 0
BITMAP
0010
0070
0040
0000
01FE
03FE
0380
0780
0F80
0DFC
1DFC
1980
3F80
7F80
61FE
C1FE
ENDCHAR
STARTCHAR 01FD
ENCODING 509
SWIDTH 720 0
DWIDTH 12 0
BBX 10 12 1 0
BITMAP
0200
0E00
0800
0000
0000
7B80
7FC0
7FC0
FFC0
CC00
FFC0
7380
ENDCHAR
STARTCHAR 01FE
ENCODING 510
SWIDTH 780 0
DWIDTH 13 0
BBX 12 16 1 0
BITMAP
0200
0E00
0800
0000
0F90
3FE0
70E0
60E0
C130
C230
C430
C830
F060
70E0
7FC0
9F00
ENDCHAR
STARTCHAR 01FF
ENCODING 511
SWIDTH 480 0
DWIDTH 8 0
BBX 7 12 1 0
BITMAP
10
38
60
00
00
3A
7C
CE
D6
E6
7C
F8
ENDCHAR
STARTCHAR 0218
ENCODING 536
SWIDTH 480 0
DWIDTH 8 0
BBX 7 19 1 -7
BITMAP
7C
FE
C4
C0
E0
78
3C
0E
06
C6
FC
78
00
00
18
38
08
10
10
ENDCHAR
STARTCHAR 0219
ENCODING 537
SWIDTH 420 0
DWIDTH 7 0
BBX 5 14 1 -7
BITMAP
70
F0
C0
70
18
F8
F0
00
00
30
70
10
20
20
ENDCHAR
STARTCHAR 021A
ENCODING 538
SWIDTH 600 0
DWIDTH 10 0
BBX 8 18 1 -7
BITMAP
FF
FF
18
18
18
18
18
18
18
18
18
18
00
00
18
18
08
10
ENDCHAR
STARTCHAR 021B
ENCODING 539
SWIDTH 420 0
DWIDTH 7 0
BBX 5 16 1 -7
BITMAP
60
60
F8
F8
60
60
60
78
78
00
00
30
30
10
20
20
ENDCHAR
STARTCHAR 0237
ENCODING 567
SWIDTH 240 0
DWIDTH 4 0
BBX 5 12 -2 -5
BITMAP
18
18
18
18
18
18
18
18
18
18
F0
F0
ENDCHAR
STARTCHAR 02C6
ENCODING 710
SWIDTH 360 0
DWIDTH 6 0
BBX 4 3 1 9
BITMAP
20
F0
90
ENDCHAR
STARTCHAR 02C7
ENCODING 711
SWIDTH 360 0
DWIDTH 6 0
BBX 4 3 1 9
BITMAP
90
F0
60
ENDCHAR
STARTCHAR 02C9
ENCODING 713
SWIDTH 420 0
DWIDTH 7 0
BBX 5 1 1 10
BITMAP
F8
ENDCHAR
STARTCHAR 02D8
ENCODING 728
SWIDTH 360 0
DWIDTH 6 0
BBX 4 3 1 9
BITMAP
10
90
E0
ENDCHAR
STARTCHAR 02D9
ENCODING 729
SWIDTH 180 0
DWIDTH 3 0
BBX 2 2 1 9
BITMAP
C0
C0
ENDCHAR
STARTCHAR 02DA
ENCODING 730
SWIDTH 360 0
DWIDTH 6 0
BBX 4 4 1 8
BITMAP
60
90
90
60
ENDCHAR
STARTCHAR 02DB
ENCODING 731
SWIDTH 360 0
DWIDTH 6 0
BBX 4 4 1 -4
BITMAP
40
C0
C0
70
ENDCHAR
STARTCHAR 02DC
ENCODING 732
SWIDTH 360 0
DWIDTH 6 0
BBX 5 3 1 9
BITMAP
C0
F8
B0
ENDCHAR
STARTCHAR 02DD
ENCODING 733
SWIDTH 420 0
DWIDTH 7 0
BBX 5 3 1 9
BITMAP
D8
D0
B0
ENDCHAR
STARTCHAR 0394
ENCODING 916
SWIDTH 720 0
DWIDTH 12 0
BBX 11 12 0 0
BITMAP
0400
0600
0E00
0F00
0F00
1B80
1980
31C0
30C0
70C0
7FE0
FFE0
ENDCHAR
STARTCHAR 03A9
ENCODING 937
SWIDTH 840 0
DWIDTH 14 0
BBX 12 12 1 0
BITMAP
0F00
3FC0
79E0
E060
E070
C030
C030
C030
6060
70E0
F9F0
F9F0
ENDCHAR
STARTCHAR 03BC
ENCODING 956
SWIDTH 540 0
DWIDTH 9 0
BBX 7 12 1 -5
BITMAP
C6
C6
C6
C6
C6
FE
FA
C0
C0
C0
C0
C0
ENDCHAR
STARTCHAR 03C0
ENCODING 960
SWIDTH 720 0
DWIDTH 12 0
BBX 10 7 1 0
BITMAP
FFC0
FFC0
3300
3300
3300
3300
3300
ENDCHAR
STARTCHAR 1E80
ENCODING 7808
SWIDTH 900 0
DWIDTH 15 0
BBX 13 16 1 0
BITMAP
0400
0700
0100
0000
C218
C218
C718
C718
6DB0
6DB0
6DB0
78F0
38E0
3060
3060
1040
ENDCHAR
STARTCHAR 1E81
ENCODING 7809
SWIDTH 600 0
DWIDTH 10 0
BBX 10 12 0 0
BITMAP
0800
1C00
0600
0000
0000
C4C0
6CC0
6F80
7F80
3380
3100
2100
ENDCHAR
STARTCHAR 1E82
ENCODING 7810
SWIDTH 900 0
DWIDTH 15 0
BBX 13 16 1 0
BITMAP
0100
0700
0400
0000
C218
C218
C718
C718
6DB0
6DB0
6DB0
78F0
38E0
3060
3060
1040
ENDCHAR
STARTCHAR 1E83
ENCODING 7811
SWIDTH 600 0
DWIDTH 10 0
BBX 10 12 0 0
BITMAP
0200
0E00
1800
0000
0000
C4C0
6CC0
6F80
7F80
3380
3100
2100
ENDCHAR
STARTCHAR 1E84
ENCODING 7812
SWIDTH 840 0
DWIDTH 14 0
BBX 14 16 0 0
BITMAP
0CC0
0CC0
0000
0000
C30C
E31C
6318
6798
6798
34B8
3CF0
3CF0
3870
1860
1860
1020
ENDCHAR
STARTCHAR 1E85
ENCODING 7813
SWIDTH 540 0
DWIDTH 9 0
BBX 9 12 0 0
BITMAP
3600
3600
0000
0000
0000
C980
DD80
DD80
7700
7700
6300
2200
ENDCHAR
STARTCHAR 1EF2
ENCODING 7922
SWIDTH 600 0
DWIDTH 10 0
BBX 10 16 0 0
BITMAP
1000
1C00
0600
0000
E1C0
6180
3300
3F00
1E00
0C00
0C00
0C00
0C00
0C00
0C00
0C00
ENDCHAR
STARTCHAR 1EF3
ENCODING 7923
SWIDTH 480 0
DWIDTH 8 0
BBX 8 17 0 -5
BITMAP
20
38
0C
00
00
C7
66
66
3C
3C
38
18
30
30
70
60
E0
ENDCHAR
STARTCHAR 2013
ENCODING 8211
SWIDTH 540 0
DWIDTH 9 0
BBX 7 2 1 4
BITMAP
FE
FE
ENDCHAR
STARTCHAR 2014
ENCODING 8212
SWIDTH 780 0
DWIDTH 13 0
BBX 11 2 1 4
BITMAP
FFE0
FFE0
ENDCHAR
STARTCHAR 2018
ENCODING 8216
SWIDTH 240 0
DWIDTH 4 0
BBX 3 4 1 8
BITMAP
40
80
E0
E0
ENDCHAR
STARTCHAR 2019
ENCODING 8217
SWIDTH 240 0
DWIDTH 4 0
BBX 3 5 0 7
BITMAP
60
60
20
40
80
ENDCHAR
STARTCHAR 201A
ENCODING 8218
SWIDTH 240 0
DWIDTH 4 0
BBX 2 5 1 -3
BITMAP
C0
C0
40
80
80
ENDCHAR
STARTCHAR 201C
ENCODING 8220
SWIDTH 480 0
DWIDTH 8 0
BBX 6 4 1 8
BITMAP
48
90
DC
DC
ENDCHAR
STARTCHAR 201D
ENCODING 8221
SWIDTH 420 0
DWIDTH 7 0
BBX 6 5 0 7
BITMAP
6C
6C
24
48
90
ENDCHAR
STARTCHAR 201E
ENCODING 8222
SWIDTH 420 0
DWIDTH 7 0
BBX 5 5 1 -3
BITMAP
D8
D8
48
90
90
ENDCHAR
STARTCHAR 2020
ENCODING 8224
SWIDTH 660 0
DWIDTH 11 0
BBX 9 17 1 -5
BITMAP
1800
1800
1800
1800
1800
FF80
FF80
1800
1800
1800
1800
1800
1800
1800
1800
1800
1800
ENDCHAR
STARTCHAR 2021
ENCODING 8225
SWIDTH 660 0
DWIDTH 11 0
BBX 9 17 1 -5
BITMAP
1800
1800
1800
FF80
FF80
1800
1800
1800
1800
1800
FF00
FF00
1800
1800
1800
1800
1800
ENDCHAR
STARTCHAR 2022
ENCODING 8226
SWIDTH 360 0
DWIDTH 6 0
BBX 4 4 1 2
BITMAP
60
F0
F0
60
ENDCHAR
STARTCHAR 2026
ENCODING 8230
SWIDTH 720 0
DWIDTH 12 0
BBX 10 2 1 0
BITMAP
CCC0
CCC0
ENDCHAR
STARTCHAR 2030
ENCODING 8240
SWIDTH 1020 0
DWIDTH 17 0
BBX 15 12 1 0
BITMAP
7100
FB00
DA00
FE00
7400
0C00
0800
1800
139C
36F6
27FE
639C
ENDCHAR
STARTCHAR 2039
ENCODING 8249
SWIDTH 300 0
DWIDTH 5 0
BBX 3 6 1 1
BITMAP
60
C0
C0
C0
C0
60
ENDCHAR
STARTCHAR 203A
ENCODING 8250
SWIDTH 300 0
DWIDTH 5 0
BBX 3 6 1 1
BITMAP
80
C0
60
60
C0
C0
ENDCHAR
STARTCHAR 2044
ENCODING 8260
SWIDTH 120 0
DWIDTH 2 0
BBX 7 12 -2 0
BITMAP
06
04
0C
08
18
10
30
20
60
40
C0
80
ENDCHAR
STARTCHAR 2070
ENCODING 8304
SWIDTH 360 0
DWIDTH 6 0
BBX 4 5 1 8
BITMAP
60
B0
90
90
E0
ENDCHAR
STARTCHAR 2074
ENCODING 8308
SWIDTH 420 0
DWIDTH 7 0
BBX 5 5 1 8
BITMAP
10
30
50
F8
10
ENDCHAR
STARTCHAR 2075
ENCODING 8309
SWIDTH 300 0
DWIDTH 5 0
BBX 4 5 1 8
BITMAP
E0
80
E0
B0
E0
ENDCHAR
STARTCHAR 2076
ENCODING 8310
SWIDTH 360 0
DWIDTH 6 0
BBX 4 5 1 8
BITMAP
20
40
F0
90
60
ENDCHAR
STARTCHAR 2077
ENCODING 8311
SWIDTH 360 0
DWIDTH 6 0
BBX 4 5 1 8
BITMAP
F0
20
60
40
C0
ENDCHAR
STARTCHAR 2078
ENCODING 8312
SWIDTH 360 0
DWIDTH 6 0
BBX 4 5 1 8
BITMAP
F0
D0
60
B0
F0
ENDCHAR
STARTCHAR 2079
ENCODING 8313
SWIDTH 360 0
DWIDTH 6 0
BBX 4 5 1 8
BITMAP
60
90
F0
30
40
ENDCHAR
STARTCHAR 2080
ENCODING 8320
SWIDTH 360 0
DWIDTH 6 0
BBX 4 4 1 -2
BITMAP
E0
90
90
E0
ENDCHAR
STARTCHAR 2081
ENCODING 8321
SWIDTH 240 0
DWIDTH 4 0
BBX 2 4 1 -2
BITMAP
C0
40
40
40
ENDCHAR
STARTCHAR 2082
ENCODING 8322
SWIDTH 360 0
DWIDTH 6 0
BBX 4 4 1 -2
BITMAP
70
10
20
F0
ENDCHAR
STARTCHAR 2083
ENCODING 8323
SWIDTH 300 0
DWIDTH 5 0
BBX 3 4 1 -2
BITMAP
E0
C0
20
E0
ENDCHAR
STARTCHAR 2084
ENCODING 8324
SWIDTH 420 0
DWIDTH 7 0
BBX 5 4 1 -2
BITMAP
30
50
F8
10
ENDCHAR
STARTCHAR 2085
ENCODING 8325
SWIDTH 300 0
DWIDTH 5 0
BBX 4 4 1 -2
BITMAP
E0
E0
B0
E0
ENDCHAR
STARTCHAR 2086
ENCODING 8326
SWIDTH 360 0
DWIDTH 6 0
BBX 4 5 1 -2
BITMAP
20
40
F0
90
60
ENDCHAR
STARTCHAR 2087
ENCODING 8327
SWIDTH 360 0
DWIDTH 6 0
BBX 4 4 1 -2
BITMAP
F0
20
60
C0
ENDCHAR
STARTCHAR 2088
ENCODING 8328
SWIDTH 360 0
DWIDTH 6 0
BBX 4 4 1 -2
BITMAP
F0
60
B0
F0
ENDCHAR
STARTCHAR 2089
ENCODING 8329
SWIDTH 360 0
DWIDTH 6 0
BBX 4 5 1 -3
BITMAP
60
90
F0
30
40
ENDCHAR
STARTCHAR 20AC
ENCODING 8364
SWIDTH 720 0
DWIDTH 12 0
BBX 11 12 0 0
BITMAP
07C0
1FE0
3860
3000
7000
FF00
7000
FE00
3000
3860
1FE0
07C0
ENDCHAR
STARTCHAR 2113
ENCODING 8467
SWIDTH 480 0
DWIDTH 8 0
BBX 7 12 1 0
BITMAP
0C
12
32
22
26
2C
78
E0
C0
40
44
3C
ENDCHAR
STARTCHAR 2122
ENCODING 8482
SWIDTH 720 0
DWIDTH 12 0
BBX 10 5 1 7
BITMAP
F480
4480
47C0
4F40
4B40
ENDCHAR
STARTCHAR 2126
ENCODING 8486
SWIDTH 780 0
DWIDTH 13 0
BBX 12 12 1 0
BITMAP
1F00
3FC0
70E0
E070
C030
C030
C030
C030
E060
70E0
F9F0
F9F0
ENDCHAR
STARTCHAR 212E
ENCODING 8494
SWIDTH 840 0
DWIDTH 14 0
BBX 12 12 0 0
BITMAP
0F00
30C0
6060
4020
C030
C030
FFF0
C000
C000
4000
30C0
1F80
ENDCHAR
STARTCHAR 2153
ENCODING 8531
SWIDTH 720 0
DWIDTH 12 0
BBX 10 12 1 0
BITMAP
6100
E300
6600
6600
6C00
0C00
1800
1B80
30C0
3180
60C0
6380
ENDCHAR
STARTCHAR 2154
ENCODING 8532
SWIDTH 780 0
DWIDTH 13 0
BBX 11 12 1 0
BITMAP
E080
3180
2300
4300
F600
0600
0C00
0DC0
1860
19C0
3060
31C0
ENDCHAR
STARTCHAR 215B
ENCODING 8539
SWIDTH 720 0
DWIDTH 12 0
BBX 10 12 1 0
BITMAP
6100
E300
6600
6600
6C00
0C00
1800
19C0
3140
3180
6140
61C0
ENDCHAR
STARTCHAR 215C
ENCODING 8540
SWIDTH 720 0
DWIDTH 12 0
BBX 10 12 1 0
BITMAP
E100
3300
E600
3600
EC00
0C00
1800
19C0
3140
31C0
6140
61C0
ENDCHAR
STARTCHAR 215D
ENCODING 8541
SWIDTH 720 0
DWIDTH 12 0
BBX 10 12 1 0
BITMAP
E100
8300
E200
3600
E400
0C00
0800
19C0
3140
31C0
6140
61C0
ENDCHAR
STARTCHAR 215E
ENCODING 8542
SWIDTH 720 0
DWIDTH 12 0
BBX 10 12 1 0
BITMAP
F100
2300
6600
4600
CC00
0C00
1800
1BC0
3340
3180
6340
63C0
ENDCHAR
STARTCHAR 2202
ENCODING 8706
SWIDTH 600 0
DWIDTH 10 0
BBX 8 11 1 1
BITMAP
30
3C
0E
06
3F
7F
C3
C3
C7
7E
3C
ENDCHAR
STARTCHAR 2206
ENCODING 8710
SWIDTH 720 0
DWIDTH 12 0
BBX 11 12 0 0
BITMAP
0400
0600
0600
0F00
0F00
1B80
1980
3180
30C0
70C0
7FE0
FFE0
ENDCHAR
STARTCHAR 220F
ENCODING 8719
SWIDTH 660 0
DWIDTH 11 0
BBX 9 12 1 0
BITMAP
FF80
FF80
C180
C180
C180
C180
C180
C180
C180
C180
C180
C180
ENDCHAR
STARTCHAR 2211
ENCODING 8721
SWIDTH 540 0
DWIDTH 9 0
BBX 7 12 1 0
BITMAP
FE
FE
70
38
1C
0C
0C
1C
38
70
FE
FE
ENDCHAR
STARTCHAR 2212
ENCODING 8722
SWIDTH 540 0
DWIDTH 9 0
BBX 7 2 1 5
BITMAP
FE
FE
ENDCHAR
STARTCHAR 2215
ENCODING 8725
SWIDTH 120 0
DWIDTH 2 0
BBX 7 12 -2 0
BITMAP
06
04
0C
08
18
10
30
20
60
40
C0
80
ENDCHAR
STARTCHAR 2219
ENCODING 8729
SWIDTH 360 0
DWIDTH 6 0
BBX 3 3 2 3
BITMAP
E0
E0
E0
ENDCHAR
STARTCHAR 221A
ENCODING 8730
SWIDTH 660 0
DWIDTH 11 0
BBX 10 12 1 0
BITMAP
01C0
03C0
0300
0600
0600
CE00
EC00
7C00
7800
3800
3000
1000
ENDCHAR
STARTCHAR 221E
ENCODING 8734
SWIDTH 600 0
DWIDTH 10 0
BBX 8 4 1 3
BITMAP
7E
DB
DB
FF
ENDCHAR
STARTCHAR 222B
ENCODING 8747
SWIDTH 420 0
DWIDTH 7 0
BBX 8 17 -1 -5
BITMAP
07
1F
18
18
18
18
18
18
18
18
18
18
18
18
18
F8
F0
ENDCHAR
STARTCHAR 2248
ENCODING 8776
SWIDTH 480 0
DWIDTH 8 0
BBX 6 5 1 2
BITMAP
FC
98
00
E4
B8
ENDCHAR
STARTCHAR 2260
ENCODING 8800
SWIDTH 480 0
DWIDTH 8 0
BBX 6 7 1 1
BITMAP
08
FC
FC
10
FC
FC
40
ENDCHAR
STARTCHAR 2264
ENCODING 8804
SWIDTH 480 0
DWIDTH 8 0
BBX 7 9 0 2
BITMAP
06
1C
70
F0
1E
06
00
FE
FE
ENDCHAR
STARTCHAR 2265
ENCODING 8805
SWIDTH 480 0
DWIDTH 8 0
BBX 7 9 0 2
BITMAP
C0
78
1E
1E
78
C0
00
FE
FE
ENDCHAR
STARTCHAR 25CA
ENCODING 9674
SWIDTH 720 0
DWIDTH 12 0
BBX 9 12 1 0
BITMAP
0800
0C00
1E00
3700
7380
E180
E180
7380
3700
1E00
1C00
0800
ENDCHAR
STARTCHAR F8FF
ENCODING 63743
SWIDTH 600 0
DWIDTH 10 0
BBX 8 12 1 0
BITMAP
FF
FF
E3
DB
FB
F7
FF
FF
FF
E7
FF
FF
ENDCHAR
STARTCHAR FB01
ENCODING 64257
SWIDTH 600 0
DWIDTH 10 0
BBX 8 12 1 0
BITMAP
3C
7C
60
60
60
FF
FF
63
63
63
63
63
ENDCHAR
STARTCHAR FB02
ENCODING 64258
SWIDTH 540 0
DWIDTH 9 0
BBX 7 12 1 0
BITMAP
3E
7E
62
62
62
FA
FA
62
62
62
62
62
ENDCHAR
ENDFONT
